<svg width="850" height="300" viewBox="0 0 850 300" fill="none" xmlns="http://www.w3.org/2000/svg">
  <style>
    * {
      transform-origin: center;
      transform-box: fill-box;
    }

    .animate-fade-in-bottom {
      animation: fade-in-bottom 0.64s cubic-bezier(0, 0, 0.2, 1) forwards;
    }

    .title {
      opacity: 0;
      animation-delay: 0.4s;
    }

    .description {
      opacity: 0;
      animation-delay: 0.7s;
    }

    @keyframes fade-in-bottom {
      from {
        opacity: 0;
        transform: translate3d(0, -20px, 0);
      }
      to {
        opacity: 1;
        transform: translate3d(0, 0, 0);
      }
    }

  </style>

  <g clip-path="url(#clip0_217_2)">
    <rect width="850" height="300" rx="20" fill="url(#paint0_linear_217_2)"/>
    <g class="line">
      <path d="M-20.1953 -5.25098C-17.388 3.69727 4.85976 20.1199 71.3926 14.2246C154.559 6.85547 214.038 5.80273 269.833 34.2266C325.628 62.6504 389.318 115.287 497.224 118.972C605.129 122.656 679.347 104.233 740.405 167.397C789.252 217.929 852.697 241.44 878.313 246.879M14.5449 -46.834C17.3522 -37.8857 39.6 -21.4631 106.133 -27.3584C189.299 -34.7275 248.778 -35.7803 304.573 -7.35645C360.368 21.0674 424.059 73.7041 531.964 77.3887C639.869 81.0732 714.087 62.6504 775.146 125.814C823.992 176.346 887.437 199.857 913.054 205.296M49.2852 -88.417C52.0924 -79.4688 74.3402 -63.0461 140.873 -68.9414C224.039 -76.3105 283.519 -77.3633 339.313 -48.9395C395.108 -20.5156 458.799 32.1211 566.704 35.8057C674.609 39.4902 748.827 21.0674 809.886 84.2314C858.733 134.763 922.177 158.274 947.794 163.713M84.0254 -130C86.8327 -121.052 109.08 -104.629 175.613 -110.524C258.779 -117.894 318.259 -118.946 374.054 -90.5225C429.849 -62.0986 493.539 -9.46191 601.444 -5.77734C709.35 -2.09277 783.567 -20.5156 844.626 42.6484C893.473 93.1797 956.918 116.691 982.534 122.13M-176 156.87C-173.193 165.818 -150.945 182.241 -84.4121 176.346C-1.24609 168.977 58.2334 167.924 114.028 196.348C169.823 224.771 233.514 277.408 341.419 281.093C449.324 284.777 523.542 266.354 584.601 329.519C633.447 380.05 696.892 403.561 722.509 409M-141.26 115.287C-138.452 124.235 -116.205 140.658 -49.6719 134.763C33.4941 127.394 92.9736 126.341 148.769 154.765C204.563 183.188 268.254 235.825 376.159 239.51C484.064 243.194 558.282 224.771 619.341 287.936C668.188 338.467 731.633 361.978 757.249 367.417M-106.52 73.7041C-103.712 82.6523 -81.4644 99.075 -14.9316 93.1797C68.2344 85.8105 127.714 84.7578 183.509 113.182C239.304 141.605 302.994 194.242 410.899 197.927C518.805 201.611 593.022 183.188 654.081 246.353C702.928 296.884 766.373 320.395 791.989 325.834M-71.7793 32.1211C-68.972 41.0693 -46.7242 57.492 19.8086 51.5967C102.975 44.2275 162.454 43.1748 218.249 71.5986C274.044 100.022 337.734 152.659 445.64 156.344C553.545 160.028 627.763 141.605 688.821 204.77C737.668 255.301 801.113 278.812 826.729 284.251" stroke="url(#paint1_linear_217_2)" stroke-width="1.05273"/>
    </g>
    <g class="animate-fade-in-bottom title">
      <path d="M149.49 108.04C149.49 107.304 149.506 106.76 149.538 106.408C149.602 106.024 149.762 105.592 150.018 105.112C150.466 104.248 151.714 103.816 153.762 103.816C156.002 103.816 157.33 104.408 157.746 105.592C157.906 106.136 157.986 106.968 157.986 108.088V134.776C157.986 135.544 157.954 136.104 157.89 136.456C157.858 136.808 157.714 137.224 157.458 137.704C157.01 138.568 155.762 139 153.714 139C151.474 139 150.162 138.392 149.778 137.176C149.586 136.664 149.49 135.848 149.49 134.728V108.04ZM169.258 104.824C169.802 105.368 170.074 106.296 170.074 107.608V108.376C170.074 109.176 170.042 109.768 169.978 110.152C169.754 112.968 168.922 115.384 167.482 117.4C166.042 119.416 164.218 120.424 162.01 120.424C161.786 120.424 161.578 120.264 161.386 119.944C161.226 119.592 161.146 119.144 161.146 118.6C161.146 118.056 161.21 117.64 161.338 117.352C161.498 117.032 161.658 116.856 161.818 116.824C162.01 116.76 162.154 116.728 162.25 116.728C162.346 116.696 162.522 116.616 162.778 116.488C163.034 116.328 163.258 116.12 163.45 115.864C163.962 115.192 164.25 114.152 164.314 112.744C163.226 112.584 162.41 112.232 161.866 111.688C161.354 111.144 161.098 109.992 161.098 108.232C161.098 106.952 161.258 106.008 161.578 105.4C161.898 104.76 162.378 104.344 163.018 104.152C163.69 103.928 164.714 103.816 166.09 103.816C167.466 103.816 168.522 104.152 169.258 104.824ZM181.465 117.064C182.969 114.792 184.777 113.656 186.889 113.656C190.153 113.656 192.585 115.048 194.185 117.832C194.537 117.352 194.953 116.856 195.433 116.344C195.945 115.8 196.745 115.224 197.833 114.616C198.921 113.976 200.041 113.656 201.193 113.656C203.753 113.656 205.897 114.648 207.625 116.632C209.353 118.584 210.217 121.832 210.217 126.376V134.776C210.217 135.512 210.185 136.072 210.121 136.456C210.089 136.808 209.945 137.224 209.689 137.704C209.273 138.568 208.041 139 205.993 139C203.977 139 202.745 138.552 202.297 137.656C202.073 137.176 201.929 136.76 201.865 136.408C201.833 136.024 201.817 135.464 201.817 134.728V126.328C201.817 123.544 200.825 122.152 198.841 122.152C197.721 122.152 196.953 122.52 196.537 123.256C196.153 123.992 195.961 125.032 195.961 126.376V134.776C195.961 135.544 195.929 136.104 195.865 136.456C195.833 136.808 195.689 137.224 195.433 137.704C194.985 138.568 193.737 139 191.689 139C189.673 139 188.441 138.552 187.993 137.656C187.769 137.176 187.625 136.76 187.561 136.408C187.529 136.024 187.513 135.464 187.513 134.728V126.328C187.513 123.544 186.521 122.152 184.537 122.152C182.617 122.152 181.657 123.544 181.657 126.328V134.824C181.657 135.56 181.625 136.12 181.561 136.504C181.529 136.856 181.385 137.272 181.129 137.752C180.649 138.584 179.401 139 177.385 139C175.369 139 174.137 138.568 173.689 137.704C173.465 137.224 173.321 136.808 173.257 136.456C173.225 136.104 173.209 135.544 173.209 134.776V117.88C173.209 117.144 173.225 116.6 173.257 116.248C173.321 115.864 173.481 115.448 173.737 115C174.217 114.136 175.353 113.704 177.145 113.704C178.937 113.704 180.105 113.992 180.649 114.568C181.193 115.144 181.465 115.976 181.465 117.064ZM387.247 103.768H413.935C414.959 103.768 415.711 103.896 416.191 104.152C416.671 104.376 416.991 104.744 417.151 105.256C417.311 105.768 417.391 106.44 417.391 107.272C417.391 108.104 417.311 108.776 417.151 109.288C416.991 109.768 416.719 110.104 416.335 110.296C415.759 110.584 414.943 110.728 413.887 110.728H404.719V134.872C404.719 135.608 404.687 136.152 404.623 136.504C404.591 136.856 404.447 137.272 404.191 137.752C403.967 138.2 403.551 138.52 402.943 138.712C402.335 138.904 401.535 139 400.543 139C399.551 139 398.751 138.904 398.143 138.712C397.567 138.52 397.151 138.2 396.895 137.752C396.671 137.272 396.527 136.856 396.463 136.504C396.431 136.12 396.415 135.56 396.415 134.824V110.728H387.199C386.175 110.728 385.423 110.616 384.943 110.392C384.463 110.136 384.143 109.752 383.983 109.24C383.823 108.728 383.743 108.056 383.743 107.224C383.743 106.392 383.823 105.736 383.983 105.256C384.143 104.744 384.415 104.392 384.799 104.2C385.375 103.912 386.191 103.768 387.247 103.768ZM431.471 113.992C432.079 114.184 432.575 114.52 432.959 115C433.375 115.448 433.583 116.184 433.583 117.208C433.583 118.232 433.279 119.352 432.671 120.568C432.063 121.784 431.183 122.392 430.031 122.392C429.455 122.392 428.895 122.264 428.351 122.008C427.839 121.752 427.151 121.624 426.287 121.624C425.423 121.624 424.607 121.928 423.839 122.536C423.103 123.144 422.735 123.88 422.735 124.744V134.824C422.735 135.56 422.703 136.12 422.639 136.504C422.607 136.856 422.463 137.272 422.207 137.752C421.727 138.584 420.479 139 418.463 139C416.927 139 415.823 138.728 415.151 138.184C414.639 137.736 414.351 137.048 414.287 136.12C414.287 135.8 414.287 135.336 414.287 134.728V117.88C414.287 117.144 414.303 116.6 414.335 116.248C414.399 115.864 414.543 115.448 414.767 115C415.215 114.136 416.463 113.704 418.511 113.704C420.431 113.704 421.631 114.072 422.111 114.808C422.463 115.32 422.639 115.848 422.639 116.392C422.799 116.168 423.023 115.896 423.311 115.576C423.631 115.256 424.287 114.824 425.279 114.28C426.271 113.736 427.135 113.464 427.871 113.464C428.639 113.464 429.279 113.512 429.791 113.608C430.303 113.672 430.863 113.8 431.471 113.992ZM436.225 117.928C436.225 117.192 436.241 116.648 436.273 116.296C436.337 115.912 436.481 115.48 436.705 115C437.153 114.168 438.401 113.752 440.449 113.752C441.985 113.752 443.073 114.024 443.713 114.568C444.257 115.016 444.545 115.704 444.577 116.632C444.609 116.952 444.625 117.416 444.625 118.024V134.824C444.625 135.56 444.593 136.12 444.529 136.504C444.497 136.856 444.353 137.272 444.097 137.752C443.681 138.584 442.449 139 440.401 139C438.385 139 437.153 138.568 436.705 137.704C436.481 137.224 436.337 136.808 436.273 136.456C436.241 136.104 436.225 135.544 436.225 134.776V117.928ZM444.097 109.048C443.873 109.496 443.457 109.816 442.849 110.008C442.241 110.2 441.425 110.296 440.401 110.296C439.409 110.296 438.609 110.2 438.001 110.008C437.393 109.816 436.961 109.48 436.705 109C436.481 108.52 436.337 108.104 436.273 107.752C436.241 107.368 436.225 106.808 436.225 106.072C436.225 105.336 436.241 104.792 436.273 104.44C436.337 104.056 436.481 103.64 436.705 103.192C437.153 102.328 438.401 101.896 440.449 101.896C442.465 101.896 443.681 102.328 444.097 103.192C444.353 103.672 444.497 104.104 444.529 104.488C444.593 104.84 444.625 105.384 444.625 106.12C444.625 106.856 444.593 107.416 444.529 107.8C444.497 108.152 444.353 108.568 444.097 109.048ZM461.083 130.552H469.291C470.571 130.552 471.483 130.712 472.027 131.032C472.603 131.352 472.987 131.816 473.179 132.424C473.371 133.032 473.467 133.832 473.467 134.824C473.467 135.816 473.371 136.616 473.179 137.224C472.987 137.832 472.651 138.264 472.171 138.52C471.691 138.744 471.259 138.888 470.875 138.952C470.523 138.984 469.979 139 469.243 139H451.915C450.795 139 449.819 138.584 448.987 137.752C448.155 136.92 447.739 135.928 447.739 134.776C447.739 133.624 448.155 132.648 448.987 131.848C449.819 131.016 451.099 129.832 452.827 128.296C454.555 126.76 456.123 125.384 457.531 124.168C458.939 122.92 459.707 122.232 459.835 122.104H453.067C451.243 122.104 450.091 121.8 449.611 121.192C449.067 120.488 448.795 119.56 448.795 118.408C448.795 117.256 448.875 116.408 449.035 115.864C449.195 115.288 449.387 114.872 449.611 114.616C449.835 114.328 450.155 114.104 450.571 113.944C451.115 113.784 451.947 113.704 453.067 113.704H468.667C469.787 113.704 470.763 114.104 471.595 114.904C472.427 115.704 472.843 116.712 472.843 117.928C472.843 119.112 472.363 120.168 471.403 121.096C470.443 122.024 467.003 125.176 461.083 130.552ZM491.464 126.328L497.848 131.608C498.648 132.28 499.144 132.792 499.336 133.144C499.56 133.496 499.672 133.832 499.672 134.152C499.672 134.92 499.176 135.96 498.184 137.272C497.096 138.616 496.136 139.288 495.304 139.288C494.6 139.288 493.624 138.824 492.376 137.896L491.896 137.56C491.16 136.952 490.024 135.896 488.488 134.392C486.952 132.856 485.784 131.768 484.984 131.128V134.824C484.984 135.56 484.952 136.12 484.888 136.504C484.856 136.856 484.712 137.272 484.456 137.752C484.04 138.584 482.808 139 480.76 139C478.744 139 477.512 138.568 477.064 137.704C476.84 137.224 476.696 136.808 476.632 136.456C476.6 136.072 476.584 135.512 476.584 134.776V106.024C476.584 105.288 476.6 104.744 476.632 104.392C476.696 104.008 476.84 103.576 477.064 103.096C477.512 102.232 478.76 101.8 480.808 101.8C482.344 101.8 483.432 102.072 484.072 102.616C484.616 103.064 484.904 103.768 484.936 104.728C484.968 105.016 484.984 105.464 484.984 106.072V121.288C485.56 120.808 486.424 119.992 487.576 118.84C488.76 117.688 489.64 116.872 490.216 116.392L490.792 116.008C491.912 115.144 492.872 114.712 493.672 114.712C494.472 114.712 495.384 115.368 496.408 116.68C497.464 117.96 497.992 118.968 497.992 119.704C497.992 120.44 497.4 121.304 496.216 122.296L491.464 126.328ZM523.917 113.992C525.805 114.824 526.749 115.832 526.749 117.016C526.749 117.592 526.621 118.136 526.365 118.648C526.109 119.16 525.981 119.432 525.981 119.464L513.405 147.592C513.149 148.2 512.925 148.664 512.733 148.984C512.573 149.304 512.301 149.608 511.917 149.896C511.533 150.184 511.053 150.328 510.477 150.328C509.901 150.328 509.053 150.088 507.933 149.608C506.045 148.776 505.101 147.784 505.101 146.632C505.101 145.864 506.637 142.2 509.709 135.64L500.157 119.56C499.517 118.504 499.197 117.72 499.197 117.208C499.197 116.184 500.061 115.16 501.789 114.136C502.877 113.496 503.725 113.176 504.333 113.176C504.941 113.176 505.437 113.304 505.821 113.56C506.205 113.816 506.477 114.088 506.637 114.376C506.829 114.632 507.709 116.12 509.277 118.84C510.877 121.528 512.397 124.04 513.837 126.376C513.997 125.864 514.861 123.896 516.429 120.472C517.997 117.016 518.829 115.176 518.925 114.952C519.053 114.728 519.245 114.456 519.501 114.136C519.917 113.592 520.493 113.32 521.229 113.32C521.997 113.32 522.893 113.544 523.917 113.992ZM556.578 121.336C561.474 126.04 564.946 129.576 566.994 131.944C568.05 133.128 568.578 134.136 568.578 134.968C568.578 135.768 567.938 136.728 566.658 137.848C565.378 138.936 564.322 139.48 563.49 139.48C562.69 139.48 561.714 138.808 560.562 137.464L550.002 125.416V134.776C550.002 135.544 549.97 136.104 549.906 136.456C549.874 136.808 549.73 137.224 549.474 137.704C549.026 138.568 547.778 139 545.73 139C543.49 139 542.178 138.392 541.794 137.176C541.602 136.664 541.506 135.848 541.506 134.728V108.04C541.506 107.304 541.522 106.76 541.554 106.408C541.618 106.024 541.778 105.592 542.034 105.112C542.482 104.248 543.73 103.816 545.778 103.816C548.018 103.816 549.346 104.408 549.762 105.592C549.922 106.136 550.002 106.968 550.002 108.088V117.256C554.354 112.36 557.874 108.344 560.562 105.208C561.682 103.896 562.658 103.24 563.49 103.24C564.322 103.24 565.378 103.8 566.658 104.92C567.938 106.008 568.578 106.968 568.578 107.8C568.578 108.6 568.098 109.56 567.138 110.68C565.282 112.824 562.402 115.768 558.498 119.512L556.578 121.336ZM586.656 116.392C586.848 114.6 588.112 113.704 590.448 113.704C591.696 113.704 592.624 113.8 593.232 113.992C593.84 114.184 594.256 114.52 594.48 115C594.736 115.48 594.88 115.912 594.912 116.296C594.976 116.648 595.008 117.192 595.008 117.928V134.728C595.008 135.464 594.976 136.024 594.912 136.408C594.88 136.76 594.752 137.176 594.528 137.656C594.08 138.488 592.976 138.904 591.216 138.904C589.488 138.904 588.32 138.696 587.712 138.28C587.136 137.832 586.8 137.192 586.704 136.36C585.52 138.056 583.536 138.904 580.752 138.904C578 138.904 575.44 137.64 573.072 135.112C570.704 132.584 569.52 129.656 569.52 126.328C569.52 122.968 570.704 120.04 573.072 117.544C575.472 115.016 578.096 113.752 580.944 113.752C582.032 113.752 583.024 113.944 583.92 114.328C584.816 114.712 585.44 115.08 585.792 115.432C586.144 115.752 586.432 116.072 586.656 116.392ZM577.92 126.376C577.92 127.432 578.336 128.392 579.168 129.256C580 130.088 581.008 130.504 582.192 130.504C583.376 130.504 584.352 130.072 585.12 129.208C585.92 128.344 586.32 127.4 586.32 126.376C586.32 125.32 585.936 124.344 585.168 123.448C584.432 122.552 583.424 122.104 582.144 122.104C580.896 122.104 579.872 122.552 579.072 123.448C578.304 124.344 577.92 125.32 577.92 126.376ZM613.522 122.2L610.402 122.008V128.632C610.402 129.496 610.53 130.12 610.786 130.504C611.074 130.888 611.586 131.08 612.322 131.08C613.09 131.08 613.666 131.112 614.05 131.176C614.466 131.208 614.898 131.352 615.346 131.608C616.082 132.024 616.45 133.096 616.45 134.824C616.45 136.84 616.002 138.072 615.106 138.52C614.626 138.744 614.194 138.888 613.81 138.952C613.458 138.984 612.93 139 612.226 139C608.898 139 606.37 138.248 604.642 136.744C602.914 135.24 602.05 132.696 602.05 129.112V122.008C601.442 122.104 600.786 122.152 600.082 122.152C599.378 122.152 598.786 121.88 598.306 121.336C597.858 120.792 597.634 119.864 597.634 118.552C597.634 117.24 597.714 116.296 597.874 115.72C598.034 115.112 598.258 114.68 598.546 114.424C599.058 114.008 599.698 113.8 600.466 113.8L602.05 113.992V109.048C602.05 108.312 602.066 107.768 602.098 107.416C602.162 107.064 602.322 106.68 602.578 106.264C602.994 105.464 604.226 105.064 606.274 105.064C608.45 105.064 609.746 105.656 610.162 106.84C610.322 107.352 610.402 108.168 610.402 109.288V113.992C611.81 113.864 612.866 113.8 613.57 113.8C614.306 113.8 614.85 113.832 615.202 113.896C615.586 113.928 616.018 114.072 616.498 114.328C617.33 114.744 617.746 115.976 617.746 118.024C617.746 120.04 617.314 121.272 616.45 121.72C615.97 121.944 615.538 122.088 615.154 122.152C614.802 122.184 614.258 122.2 613.522 122.2ZM631.629 138.904C628.397 138.904 625.709 137.688 623.565 135.256C621.453 132.792 620.397 129.8 620.397 126.28V117.88C620.397 117.112 620.413 116.552 620.445 116.2C620.509 115.848 620.653 115.432 620.877 114.952C621.325 114.088 622.573 113.656 624.621 113.656C626.861 113.656 628.173 114.264 628.557 115.48C628.749 115.992 628.845 116.808 628.845 117.928V126.328C628.845 127.64 629.213 128.664 629.949 129.4C630.717 130.136 631.725 130.504 632.973 130.504C634.253 130.504 635.277 130.12 636.045 129.352C636.845 128.584 637.245 127.576 637.245 126.328V117.832C637.245 117.096 637.261 116.552 637.293 116.2C637.357 115.816 637.517 115.384 637.773 114.904C638.189 114.072 639.421 113.656 641.469 113.656C643.485 113.656 644.717 114.088 645.165 114.952C645.389 115.432 645.517 115.864 645.549 116.248C645.613 116.6 645.645 117.144 645.645 117.88V134.872C645.645 135.576 645.613 136.12 645.549 136.504C645.517 136.856 645.373 137.256 645.117 137.704C644.637 138.536 643.405 138.952 641.421 138.952C639.469 138.952 638.269 138.568 637.821 137.8C637.501 137.256 637.341 136.6 637.341 135.832C637.213 136.056 636.925 136.376 636.477 136.792C636.029 137.208 635.597 137.56 635.181 137.848C634.093 138.552 632.909 138.904 631.629 138.904ZM660.738 138.904C657.506 138.904 654.818 137.688 652.674 135.256C650.562 132.792 649.506 129.8 649.506 126.28V117.88C649.506 117.112 649.522 116.552 649.554 116.2C649.618 115.848 649.762 115.432 649.986 114.952C650.434 114.088 651.682 113.656 653.73 113.656C655.97 113.656 657.282 114.264 657.666 115.48C657.858 115.992 657.954 116.808 657.954 117.928V126.328C657.954 127.64 658.322 128.664 659.058 129.4C659.826 130.136 660.834 130.504 662.082 130.504C663.362 130.504 664.386 130.12 665.154 129.352C665.954 128.584 666.354 127.576 666.354 126.328V117.832C666.354 117.096 666.37 116.552 666.402 116.2C666.466 115.816 666.626 115.384 666.882 114.904C667.298 114.072 668.53 113.656 670.578 113.656C672.594 113.656 673.826 114.088 674.274 114.952C674.498 115.432 674.626 115.864 674.658 116.248C674.722 116.6 674.754 117.144 674.754 117.88V134.872C674.754 135.576 674.722 136.12 674.658 136.504C674.626 136.856 674.482 137.256 674.226 137.704C673.746 138.536 672.514 138.952 670.53 138.952C668.578 138.952 667.378 138.568 666.93 137.8C666.61 137.256 666.45 136.6 666.45 135.832C666.322 136.056 666.034 136.376 665.586 136.792C665.138 137.208 664.706 137.56 664.29 137.848C663.202 138.552 662.018 138.904 660.738 138.904ZM693.495 126.328L699.879 131.608C700.679 132.28 701.175 132.792 701.367 133.144C701.591 133.496 701.703 133.832 701.703 134.152C701.703 134.92 701.207 135.96 700.215 137.272C699.127 138.616 698.167 139.288 697.335 139.288C696.631 139.288 695.655 138.824 694.407 137.896L693.927 137.56C693.191 136.952 692.055 135.896 690.519 134.392C688.983 132.856 687.815 131.768 687.015 131.128V134.824C687.015 135.56 686.983 136.12 686.919 136.504C686.887 136.856 686.743 137.272 686.487 137.752C686.071 138.584 684.839 139 682.791 139C680.775 139 679.543 138.568 679.095 137.704C678.871 137.224 678.727 136.808 678.663 136.456C678.631 136.072 678.615 135.512 678.615 134.776V106.024C678.615 105.288 678.631 104.744 678.663 104.392C678.727 104.008 678.871 103.576 679.095 103.096C679.543 102.232 680.791 101.8 682.839 101.8C684.375 101.8 685.463 102.072 686.103 102.616C686.647 103.064 686.935 103.768 686.967 104.728C686.999 105.016 687.015 105.464 687.015 106.072V121.288C687.591 120.808 688.455 119.992 689.607 118.84C690.791 117.688 691.671 116.872 692.247 116.392L692.823 116.008C693.943 115.144 694.903 114.712 695.703 114.712C696.503 114.712 697.415 115.368 698.439 116.68C699.495 117.96 700.023 118.968 700.023 119.704C700.023 120.44 699.431 121.304 698.247 122.296L693.495 126.328Z" fill="#1A120B"/>
      <path d="M226.706 134.056C225.874 133.032 225.458 132.12 225.458 131.32C225.458 130.488 226.146 129.4 227.522 128.056C228.322 127.288 229.17 126.904 230.066 126.904C230.962 126.904 232.21 127.704 233.81 129.304C234.258 129.848 234.898 130.376 235.73 130.888C236.562 131.368 237.33 131.608 238.034 131.608C241.01 131.608 242.498 130.392 242.498 127.96C242.498 127.224 242.082 126.616 241.25 126.136C240.45 125.624 239.442 125.256 238.226 125.032C237.01 124.808 235.698 124.456 234.29 123.976C232.882 123.464 231.57 122.872 230.354 122.2C229.138 121.528 228.114 120.472 227.282 119.032C226.482 117.56 226.082 115.8 226.082 113.752C226.082 110.936 227.122 108.488 229.202 106.408C231.314 104.296 234.178 103.24 237.794 103.24C239.714 103.24 241.458 103.496 243.026 104.008C244.626 104.488 245.73 104.984 246.338 105.496L247.538 106.408C248.53 107.336 249.026 108.12 249.026 108.76C249.026 109.4 248.642 110.28 247.874 111.4C246.786 113 245.666 113.8 244.514 113.8C243.842 113.8 243.01 113.48 242.018 112.84C241.922 112.776 241.73 112.616 241.442 112.36C241.186 112.104 240.946 111.896 240.722 111.736C240.05 111.32 239.186 111.112 238.13 111.112C237.106 111.112 236.242 111.368 235.538 111.88C234.866 112.36 234.53 113.048 234.53 113.944C234.53 114.808 234.93 115.512 235.73 116.056C236.562 116.6 237.586 116.968 238.802 117.16C240.018 117.352 241.346 117.656 242.786 118.072C244.226 118.456 245.554 118.936 246.77 119.512C247.986 120.088 248.994 121.096 249.794 122.536C250.626 123.944 251.042 125.688 251.042 127.768C251.042 129.848 250.626 131.688 249.794 133.288C248.962 134.856 247.874 136.072 246.53 136.936C243.938 138.632 241.17 139.48 238.226 139.48C236.722 139.48 235.298 139.304 233.954 138.952C232.61 138.568 231.522 138.104 230.69 137.56C228.994 136.536 227.81 135.544 227.138 134.584L226.706 134.056ZM267.913 122.2L264.793 122.008V128.632C264.793 129.496 264.921 130.12 265.177 130.504C265.465 130.888 265.977 131.08 266.713 131.08C267.481 131.08 268.057 131.112 268.441 131.176C268.857 131.208 269.289 131.352 269.737 131.608C270.473 132.024 270.841 133.096 270.841 134.824C270.841 136.84 270.393 138.072 269.497 138.52C269.017 138.744 268.585 138.888 268.201 138.952C267.849 138.984 267.321 139 266.617 139C263.289 139 260.761 138.248 259.033 136.744C257.305 135.24 256.441 132.696 256.441 129.112V122.008C255.833 122.104 255.177 122.152 254.473 122.152C253.769 122.152 253.177 121.88 252.697 121.336C252.249 120.792 252.025 119.864 252.025 118.552C252.025 117.24 252.105 116.296 252.265 115.72C252.425 115.112 252.649 114.68 252.937 114.424C253.449 114.008 254.089 113.8 254.857 113.8L256.441 113.992V109.048C256.441 108.312 256.457 107.768 256.489 107.416C256.553 107.064 256.713 106.68 256.969 106.264C257.385 105.464 258.617 105.064 260.665 105.064C262.841 105.064 264.137 105.656 264.553 106.84C264.713 107.352 264.793 108.168 264.793 109.288V113.992C266.201 113.864 267.257 113.8 267.961 113.8C268.697 113.8 269.241 113.832 269.593 113.896C269.977 113.928 270.409 114.072 270.889 114.328C271.721 114.744 272.137 115.976 272.137 118.024C272.137 120.04 271.705 121.272 270.841 121.72C270.361 121.944 269.929 122.088 269.545 122.152C269.193 122.184 268.649 122.2 267.913 122.2ZM274.787 117.928C274.787 117.192 274.803 116.648 274.835 116.296C274.899 115.912 275.043 115.48 275.267 115C275.715 114.168 276.963 113.752 279.011 113.752C280.547 113.752 281.635 114.024 282.275 114.568C282.819 115.016 283.107 115.704 283.139 116.632C283.171 116.952 283.187 117.416 283.187 118.024V134.824C283.187 135.56 283.155 136.12 283.091 136.504C283.059 136.856 282.915 137.272 282.659 137.752C282.243 138.584 281.011 139 278.963 139C276.947 139 275.715 138.568 275.267 137.704C275.043 137.224 274.899 136.808 274.835 136.456C274.803 136.104 274.787 135.544 274.787 134.776V117.928ZM282.659 109.048C282.435 109.496 282.019 109.816 281.411 110.008C280.803 110.2 279.987 110.296 278.963 110.296C277.971 110.296 277.171 110.2 276.563 110.008C275.955 109.816 275.523 109.48 275.267 109C275.043 108.52 274.899 108.104 274.835 107.752C274.803 107.368 274.787 106.808 274.787 106.072C274.787 105.336 274.803 104.792 274.835 104.44C274.899 104.056 275.043 103.64 275.267 103.192C275.715 102.328 276.963 101.896 279.011 101.896C281.027 101.896 282.243 102.328 282.659 103.192C282.915 103.672 283.059 104.104 283.091 104.488C283.155 104.84 283.187 105.384 283.187 106.12C283.187 106.856 283.155 107.416 283.091 107.8C283.059 108.152 282.915 108.568 282.659 109.048ZM312.51 114.28C314.174 115.272 315.006 116.328 315.006 117.448C315.006 118.088 314.686 118.968 314.046 120.088L304.11 137.128C303.79 137.672 303.278 138.168 302.574 138.616C301.87 139.032 301.166 139.24 300.462 139.24C299.79 139.24 299.134 139.08 298.494 138.76C297.886 138.408 297.454 138.056 297.198 137.704L296.766 137.176L286.782 120.088C286.142 119.032 285.822 118.168 285.822 117.496C285.822 116.344 286.654 115.272 288.318 114.28C289.534 113.576 290.494 113.224 291.198 113.224C291.902 113.224 292.446 113.448 292.83 113.896C293.246 114.312 293.678 114.952 294.126 115.816L300.414 127.912L306.702 115.816C307.054 115.208 307.31 114.776 307.47 114.52C307.662 114.232 307.95 113.96 308.334 113.704C308.718 113.416 309.23 113.272 309.87 113.272C310.51 113.272 311.39 113.608 312.51 114.28ZM340.562 123.352C340.562 125.304 340.066 126.76 339.074 127.72C338.114 128.648 337.042 129.112 335.858 129.112H324.482C324.482 130.008 325.01 130.76 326.066 131.368C327.122 131.976 328.178 132.28 329.234 132.28C331.09 132.28 332.546 132.088 333.602 131.704L334.13 131.512C334.898 131.16 335.538 130.984 336.05 130.984C337.074 130.984 337.954 131.704 338.69 133.144C339.106 134.008 339.314 134.744 339.314 135.352C339.314 138.2 335.906 139.624 329.09 139.624C326.722 139.624 324.61 139.224 322.754 138.424C320.93 137.592 319.506 136.504 318.482 135.16C316.466 132.568 315.458 129.672 315.458 126.472C315.458 122.44 316.754 119.224 319.346 116.824C321.97 114.392 325.234 113.176 329.138 113.176C333.586 113.176 336.85 114.744 338.93 117.88C340.018 119.544 340.562 121.368 340.562 123.352ZM330.434 124.744C331.65 124.744 332.258 124.232 332.258 123.208C332.258 122.472 331.97 121.88 331.394 121.432C330.85 120.984 330.05 120.76 328.994 120.76C327.97 120.76 326.946 121.192 325.922 122.056C324.898 122.888 324.386 123.784 324.386 124.744H330.434ZM357.757 113.704C360.957 113.704 363.613 114.936 365.725 117.4C367.869 119.832 368.941 122.808 368.941 126.328V134.776C368.941 135.512 368.909 136.072 368.845 136.456C368.813 136.808 368.685 137.208 368.461 137.656C368.013 138.52 366.765 138.952 364.717 138.952C362.445 138.952 361.133 138.36 360.781 137.176C360.589 136.632 360.493 135.816 360.493 134.728V126.28C360.493 124.968 360.109 123.944 359.341 123.208C358.605 122.472 357.597 122.104 356.317 122.104C355.069 122.104 354.045 122.488 353.245 123.256C352.477 124.024 352.093 125.032 352.093 126.28V134.776C352.093 135.512 352.061 136.072 351.997 136.456C351.965 136.808 351.821 137.208 351.565 137.656C351.149 138.52 349.917 138.952 347.869 138.952C345.853 138.952 344.621 138.52 344.173 137.656C343.949 137.176 343.805 136.76 343.741 136.408C343.709 136.024 343.693 135.464 343.693 134.728V117.736C343.693 117.032 343.709 116.504 343.741 116.152C343.805 115.768 343.965 115.352 344.221 114.904C344.669 114.104 345.901 113.704 347.917 113.704C349.869 113.704 351.069 114.072 351.517 114.808C351.837 115.352 351.997 116.008 351.997 116.776C352.125 116.552 352.413 116.232 352.861 115.816C353.309 115.4 353.741 115.064 354.157 114.808C355.245 114.072 356.445 113.704 357.757 113.704Z" fill="#D1CB2D"/>
    </g>

    <g class="animate-fade-in-bottom description">
      <path d="M214.301 167.084C214.301 167.78 214.061 168.36 213.581 168.824C213.109 169.28 212.385 169.508 211.409 169.508H209.801V173H208.709V164.636H211.409C212.353 164.636 213.069 164.864 213.557 165.32C214.053 165.776 214.301 166.364 214.301 167.084ZM211.409 168.608C212.017 168.608 212.465 168.476 212.753 168.212C213.041 167.948 213.185 167.572 213.185 167.084C213.185 166.052 212.593 165.536 211.409 165.536H209.801V168.608H211.409ZM222.102 164.636V173H221.01V169.208H216.75V173H215.658V164.636H216.75V168.308H221.01V164.636H222.102ZM229.559 167.084C229.559 167.78 229.319 168.36 228.839 168.824C228.367 169.28 227.643 169.508 226.667 169.508H225.059V173H223.967V164.636H226.667C227.611 164.636 228.327 164.864 228.815 165.32C229.311 165.776 229.559 166.364 229.559 167.084ZM226.667 168.608C227.275 168.608 227.723 168.476 228.011 168.212C228.299 167.948 228.443 167.572 228.443 167.084C228.443 166.052 227.851 165.536 226.667 165.536H225.059V168.608H226.667ZM236.443 173.108C235.939 173.108 235.487 173.024 235.087 172.856C234.687 172.68 234.371 172.44 234.139 172.136C233.907 171.824 233.779 171.468 233.755 171.068H234.883C234.915 171.396 235.067 171.664 235.339 171.872C235.619 172.08 235.983 172.184 236.431 172.184C236.847 172.184 237.175 172.092 237.415 171.908C237.655 171.724 237.775 171.492 237.775 171.212C237.775 170.924 237.647 170.712 237.391 170.576C237.135 170.432 236.739 170.292 236.203 170.156C235.715 170.028 235.315 169.9 235.003 169.772C234.699 169.636 234.435 169.44 234.211 169.184C233.995 168.92 233.887 168.576 233.887 168.152C233.887 167.816 233.987 167.508 234.187 167.228C234.387 166.948 234.671 166.728 235.039 166.568C235.407 166.4 235.827 166.316 236.299 166.316C237.027 166.316 237.615 166.5 238.063 166.868C238.511 167.236 238.751 167.74 238.783 168.38H237.691C237.667 168.036 237.527 167.76 237.271 167.552C237.023 167.344 236.687 167.24 236.263 167.24C235.871 167.24 235.559 167.324 235.327 167.492C235.095 167.66 234.979 167.88 234.979 168.152C234.979 168.368 235.047 168.548 235.183 168.692C235.327 168.828 235.503 168.94 235.711 169.028C235.927 169.108 236.223 169.2 236.599 169.304C237.071 169.432 237.455 169.56 237.751 169.688C238.047 169.808 238.299 169.992 238.507 170.24C238.723 170.488 238.835 170.812 238.843 171.212C238.843 171.572 238.743 171.896 238.543 172.184C238.343 172.472 238.059 172.7 237.691 172.868C237.331 173.028 236.915 173.108 236.443 173.108ZM243.253 173.108C242.637 173.108 242.077 172.968 241.573 172.688C241.077 172.408 240.685 172.012 240.397 171.5C240.117 170.98 239.977 170.38 239.977 169.7C239.977 169.028 240.121 168.436 240.409 167.924C240.705 167.404 241.105 167.008 241.609 166.736C242.113 166.456 242.677 166.316 243.301 166.316C243.925 166.316 244.489 166.456 244.993 166.736C245.497 167.008 245.893 167.4 246.181 167.912C246.477 168.424 246.625 169.02 246.625 169.7C246.625 170.38 246.473 170.98 246.169 171.5C245.873 172.012 245.469 172.408 244.957 172.688C244.445 172.968 243.877 173.108 243.253 173.108ZM243.253 172.148C243.645 172.148 244.013 172.056 244.357 171.872C244.701 171.688 244.977 171.412 245.185 171.044C245.401 170.676 245.509 170.228 245.509 169.7C245.509 169.172 245.405 168.724 245.197 168.356C244.989 167.988 244.717 167.716 244.381 167.54C244.045 167.356 243.681 167.264 243.289 167.264C242.889 167.264 242.521 167.356 242.185 167.54C241.857 167.716 241.593 167.988 241.393 168.356C241.193 168.724 241.093 169.172 241.093 169.7C241.093 170.236 241.189 170.688 241.381 171.056C241.581 171.424 241.845 171.7 242.173 171.884C242.501 172.06 242.861 172.148 243.253 172.148ZM250.737 167.324H249.357V173H248.265V167.324H247.413V166.424H248.265V165.956C248.265 165.22 248.453 164.684 248.829 164.348C249.213 164.004 249.825 163.832 250.665 163.832V164.744C250.185 164.744 249.845 164.84 249.645 165.032C249.453 165.216 249.357 165.524 249.357 165.956V166.424H250.737V167.324ZM253.342 167.324V171.2C253.342 171.52 253.41 171.748 253.546 171.884C253.682 172.012 253.918 172.076 254.254 172.076H255.058V173H254.074C253.466 173 253.01 172.86 252.706 172.58C252.402 172.3 252.25 171.84 252.25 171.2V167.324H251.398V166.424H252.25V164.768H253.342V166.424H255.058V167.324H253.342ZM265.141 166.424L263.089 173H261.961L260.377 167.78L258.793 173H257.665L255.601 166.424H256.717L258.229 171.944L259.861 166.424H260.977L262.573 171.956L264.061 166.424H265.141ZM265.817 169.688C265.817 169.016 265.953 168.428 266.225 167.924C266.497 167.412 266.869 167.016 267.341 166.736C267.821 166.456 268.353 166.316 268.937 166.316C269.513 166.316 270.013 166.44 270.437 166.688C270.861 166.936 271.177 167.248 271.385 167.624V166.424H272.489V173H271.385V171.776C271.169 172.16 270.845 172.48 270.413 172.736C269.989 172.984 269.493 173.108 268.925 173.108C268.341 173.108 267.813 172.964 267.341 172.676C266.869 172.388 266.497 171.984 266.225 171.464C265.953 170.944 265.817 170.352 265.817 169.688ZM271.385 169.7C271.385 169.204 271.285 168.772 271.085 168.404C270.885 168.036 270.613 167.756 270.269 167.564C269.933 167.364 269.561 167.264 269.153 167.264C268.745 167.264 268.373 167.36 268.037 167.552C267.701 167.744 267.433 168.024 267.233 168.392C267.033 168.76 266.933 169.192 266.933 169.688C266.933 170.192 267.033 170.632 267.233 171.008C267.433 171.376 267.701 171.66 268.037 171.86C268.373 172.052 268.745 172.148 269.153 172.148C269.561 172.148 269.933 172.052 270.269 171.86C270.613 171.66 270.885 171.376 271.085 171.008C271.285 170.632 271.385 170.196 271.385 169.7ZM275.426 167.492C275.618 167.116 275.89 166.824 276.242 166.616C276.602 166.408 277.038 166.304 277.55 166.304V167.432H277.262C276.038 167.432 275.426 168.096 275.426 169.424V173H274.334V166.424H275.426V167.492ZM284.811 169.46C284.811 169.668 284.799 169.888 284.775 170.12H279.519C279.559 170.768 279.779 171.276 280.179 171.644C280.587 172.004 281.079 172.184 281.655 172.184C282.127 172.184 282.519 172.076 282.831 171.86C283.151 171.636 283.375 171.34 283.503 170.972H284.679C284.503 171.604 284.151 172.12 283.623 172.52C283.095 172.912 282.439 173.108 281.655 173.108C281.031 173.108 280.471 172.968 279.975 172.688C279.487 172.408 279.103 172.012 278.823 171.5C278.543 170.98 278.403 170.38 278.403 169.7C278.403 169.02 278.539 168.424 278.811 167.912C279.083 167.4 279.463 167.008 279.951 166.736C280.447 166.456 281.015 166.316 281.655 166.316C282.279 166.316 282.831 166.452 283.311 166.724C283.791 166.996 284.159 167.372 284.415 167.852C284.679 168.324 284.811 168.86 284.811 169.46ZM283.683 169.232C283.683 168.816 283.591 168.46 283.407 168.164C283.223 167.86 282.971 167.632 282.651 167.48C282.339 167.32 281.991 167.24 281.607 167.24C281.055 167.24 280.583 167.416 280.191 167.768C279.807 168.12 279.587 168.608 279.531 169.232H283.683ZM295.451 169.46C295.451 169.668 295.439 169.888 295.415 170.12H290.159C290.199 170.768 290.419 171.276 290.819 171.644C291.227 172.004 291.719 172.184 292.295 172.184C292.767 172.184 293.159 172.076 293.471 171.86C293.791 171.636 294.015 171.34 294.143 170.972H295.319C295.143 171.604 294.791 172.12 294.263 172.52C293.735 172.912 293.079 173.108 292.295 173.108C291.671 173.108 291.111 172.968 290.615 172.688C290.127 172.408 289.743 172.012 289.463 171.5C289.183 170.98 289.043 170.38 289.043 169.7C289.043 169.02 289.179 168.424 289.451 167.912C289.723 167.4 290.103 167.008 290.591 166.736C291.087 166.456 291.655 166.316 292.295 166.316C292.919 166.316 293.471 166.452 293.951 166.724C294.431 166.996 294.799 167.372 295.055 167.852C295.319 168.324 295.451 168.86 295.451 169.46ZM294.323 169.232C294.323 168.816 294.231 168.46 294.047 168.164C293.863 167.86 293.611 167.632 293.291 167.48C292.979 167.32 292.631 167.24 292.247 167.24C291.695 167.24 291.223 167.416 290.831 167.768C290.447 168.12 290.227 168.608 290.171 169.232H294.323ZM300.097 166.304C300.897 166.304 301.545 166.548 302.041 167.036C302.537 167.516 302.785 168.212 302.785 169.124V173H301.705V169.28C301.705 168.624 301.541 168.124 301.213 167.78C300.885 167.428 300.437 167.252 299.869 167.252C299.293 167.252 298.833 167.432 298.489 167.792C298.153 168.152 297.985 168.676 297.985 169.364V173H296.893V166.424H297.985V167.36C298.201 167.024 298.493 166.764 298.861 166.58C299.237 166.396 299.649 166.304 300.097 166.304ZM307.281 166.316C307.849 166.316 308.345 166.44 308.769 166.688C309.201 166.936 309.521 167.248 309.729 167.624V166.424H310.833V173.144C310.833 173.744 310.705 174.276 310.449 174.74C310.193 175.212 309.825 175.58 309.345 175.844C308.873 176.108 308.321 176.24 307.689 176.24C306.825 176.24 306.105 176.036 305.529 175.628C304.953 175.22 304.613 174.664 304.509 173.96H305.589C305.709 174.36 305.957 174.68 306.333 174.92C306.709 175.168 307.161 175.292 307.689 175.292C308.289 175.292 308.777 175.104 309.153 174.728C309.537 174.352 309.729 173.824 309.729 173.144V171.764C309.513 172.148 309.193 172.468 308.769 172.724C308.345 172.98 307.849 173.108 307.281 173.108C306.697 173.108 306.165 172.964 305.685 172.676C305.213 172.388 304.841 171.984 304.569 171.464C304.297 170.944 304.161 170.352 304.161 169.688C304.161 169.016 304.297 168.428 304.569 167.924C304.841 167.412 305.213 167.016 305.685 166.736C306.165 166.456 306.697 166.316 307.281 166.316ZM309.729 169.7C309.729 169.204 309.629 168.772 309.429 168.404C309.229 168.036 308.957 167.756 308.613 167.564C308.277 167.364 307.905 167.264 307.497 167.264C307.089 167.264 306.717 167.36 306.381 167.552C306.045 167.744 305.777 168.024 305.577 168.392C305.377 168.76 305.277 169.192 305.277 169.688C305.277 170.192 305.377 170.632 305.577 171.008C305.777 171.376 306.045 171.66 306.381 171.86C306.717 172.052 307.089 172.148 307.497 172.148C307.905 172.148 308.277 172.052 308.613 171.86C308.957 171.66 309.229 171.376 309.429 171.008C309.629 170.632 309.729 170.196 309.729 169.7ZM313.242 165.356C313.034 165.356 312.858 165.284 312.714 165.14C312.57 164.996 312.498 164.82 312.498 164.612C312.498 164.404 312.57 164.228 312.714 164.084C312.858 163.94 313.034 163.868 313.242 163.868C313.442 163.868 313.61 163.94 313.746 164.084C313.89 164.228 313.962 164.404 313.962 164.612C313.962 164.82 313.89 164.996 313.746 165.14C313.61 165.284 313.442 165.356 313.242 165.356ZM313.77 166.424V173H312.678V166.424H313.77ZM318.835 166.304C319.635 166.304 320.283 166.548 320.779 167.036C321.275 167.516 321.523 168.212 321.523 169.124V173H320.443V169.28C320.443 168.624 320.279 168.124 319.951 167.78C319.623 167.428 319.175 167.252 318.607 167.252C318.031 167.252 317.571 167.432 317.227 167.792C316.891 168.152 316.723 168.676 316.723 169.364V173H315.631V166.424H316.723V167.36C316.939 167.024 317.231 166.764 317.599 166.58C317.975 166.396 318.387 166.304 318.835 166.304ZM329.307 169.46C329.307 169.668 329.295 169.888 329.271 170.12H324.015C324.055 170.768 324.275 171.276 324.675 171.644C325.083 172.004 325.575 172.184 326.151 172.184C326.623 172.184 327.015 172.076 327.327 171.86C327.647 171.636 327.871 171.34 327.999 170.972H329.175C328.999 171.604 328.647 172.12 328.119 172.52C327.591 172.912 326.935 173.108 326.151 173.108C325.527 173.108 324.967 172.968 324.471 172.688C323.983 172.408 323.599 172.012 323.319 171.5C323.039 170.98 322.899 170.38 322.899 169.7C322.899 169.02 323.035 168.424 323.307 167.912C323.579 167.4 323.959 167.008 324.447 166.736C324.943 166.456 325.511 166.316 326.151 166.316C326.775 166.316 327.327 166.452 327.807 166.724C328.287 166.996 328.655 167.372 328.911 167.852C329.175 168.324 329.307 168.86 329.307 169.46ZM328.179 169.232C328.179 168.816 328.087 168.46 327.903 168.164C327.719 167.86 327.467 167.632 327.147 167.48C326.835 167.32 326.487 167.24 326.103 167.24C325.551 167.24 325.079 167.416 324.687 167.768C324.303 168.12 324.083 168.608 324.027 169.232H328.179ZM336.748 169.46C336.748 169.668 336.736 169.888 336.712 170.12H331.456C331.496 170.768 331.716 171.276 332.116 171.644C332.524 172.004 333.016 172.184 333.592 172.184C334.064 172.184 334.456 172.076 334.768 171.86C335.088 171.636 335.312 171.34 335.44 170.972H336.616C336.44 171.604 336.088 172.12 335.56 172.52C335.032 172.912 334.376 173.108 333.592 173.108C332.968 173.108 332.408 172.968 331.912 172.688C331.424 172.408 331.04 172.012 330.76 171.5C330.48 170.98 330.34 170.38 330.34 169.7C330.34 169.02 330.476 168.424 330.748 167.912C331.02 167.4 331.4 167.008 331.888 166.736C332.384 166.456 332.952 166.316 333.592 166.316C334.216 166.316 334.768 166.452 335.248 166.724C335.728 166.996 336.096 167.372 336.352 167.852C336.616 168.324 336.748 168.86 336.748 169.46ZM335.62 169.232C335.62 168.816 335.528 168.46 335.344 168.164C335.16 167.86 334.908 167.632 334.588 167.48C334.276 167.32 333.928 167.24 333.544 167.24C332.992 167.24 332.52 167.416 332.128 167.768C331.744 168.12 331.524 168.608 331.468 169.232H335.62ZM339.282 167.492C339.474 167.116 339.746 166.824 340.098 166.616C340.458 166.408 340.894 166.304 341.406 166.304V167.432H341.118C339.894 167.432 339.282 168.096 339.282 169.424V173H338.19V166.424H339.282V167.492ZM347.197 167.324V171.2C347.197 171.52 347.265 171.748 347.401 171.884C347.537 172.012 347.773 172.076 348.109 172.076H348.913V173H347.929C347.321 173 346.865 172.86 346.561 172.58C346.257 172.3 346.105 171.84 346.105 171.2V167.324H345.253V166.424H346.105V164.768H347.197V166.424H348.913V167.324H347.197ZM353.501 166.304C353.997 166.304 354.445 166.412 354.845 166.628C355.245 166.836 355.557 167.152 355.781 167.576C356.013 168 356.129 168.516 356.129 169.124V173H355.049V169.28C355.049 168.624 354.885 168.124 354.557 167.78C354.229 167.428 353.781 167.252 353.213 167.252C352.637 167.252 352.177 167.432 351.833 167.792C351.497 168.152 351.329 168.676 351.329 169.364V173H350.237V164.12H351.329V167.36C351.545 167.024 351.841 166.764 352.217 166.58C352.601 166.396 353.029 166.304 353.501 166.304ZM357.504 169.688C357.504 169.016 357.64 168.428 357.912 167.924C358.184 167.412 358.556 167.016 359.028 166.736C359.508 166.456 360.04 166.316 360.624 166.316C361.2 166.316 361.7 166.44 362.124 166.688C362.548 166.936 362.864 167.248 363.072 167.624V166.424H364.176V173H363.072V171.776C362.856 172.16 362.532 172.48 362.1 172.736C361.676 172.984 361.18 173.108 360.612 173.108C360.028 173.108 359.5 172.964 359.028 172.676C358.556 172.388 358.184 171.984 357.912 171.464C357.64 170.944 357.504 170.352 357.504 169.688ZM363.072 169.7C363.072 169.204 362.972 168.772 362.772 168.404C362.572 168.036 362.3 167.756 361.956 167.564C361.62 167.364 361.248 167.264 360.84 167.264C360.432 167.264 360.06 167.36 359.724 167.552C359.388 167.744 359.12 168.024 358.92 168.392C358.72 168.76 358.62 169.192 358.62 169.688C358.62 170.192 358.72 170.632 358.92 171.008C359.12 171.376 359.388 171.66 359.724 171.86C360.06 172.052 360.432 172.148 360.84 172.148C361.248 172.148 361.62 172.052 361.956 171.86C362.3 171.66 362.572 171.376 362.772 171.008C362.972 170.632 363.072 170.196 363.072 169.7ZM367.354 167.324V171.2C367.354 171.52 367.422 171.748 367.558 171.884C367.694 172.012 367.93 172.076 368.266 172.076H369.07V173H368.086C367.478 173 367.022 172.86 366.718 172.58C366.414 172.3 366.262 171.84 366.262 171.2V167.324H365.41V166.424H366.262V164.768H367.354V166.424H369.07V167.324H367.354ZM379.592 169.46C379.592 169.668 379.58 169.888 379.556 170.12H374.3C374.34 170.768 374.56 171.276 374.96 171.644C375.368 172.004 375.86 172.184 376.436 172.184C376.908 172.184 377.3 172.076 377.612 171.86C377.932 171.636 378.156 171.34 378.284 170.972H379.46C379.284 171.604 378.932 172.12 378.404 172.52C377.876 172.912 377.22 173.108 376.436 173.108C375.812 173.108 375.252 172.968 374.756 172.688C374.268 172.408 373.884 172.012 373.604 171.5C373.324 170.98 373.184 170.38 373.184 169.7C373.184 169.02 373.32 168.424 373.592 167.912C373.864 167.4 374.244 167.008 374.732 166.736C375.228 166.456 375.796 166.316 376.436 166.316C377.06 166.316 377.612 166.452 378.092 166.724C378.572 166.996 378.94 167.372 379.196 167.852C379.46 168.324 379.592 168.86 379.592 169.46ZM378.464 169.232C378.464 168.816 378.372 168.46 378.188 168.164C378.004 167.86 377.752 167.632 377.432 167.48C377.12 167.32 376.772 167.24 376.388 167.24C375.836 167.24 375.364 167.416 374.972 167.768C374.588 168.12 374.368 168.608 374.312 169.232H378.464ZM384.237 166.304C385.037 166.304 385.685 166.548 386.181 167.036C386.677 167.516 386.925 168.212 386.925 169.124V173H385.845V169.28C385.845 168.624 385.681 168.124 385.353 167.78C385.025 167.428 384.577 167.252 384.009 167.252C383.433 167.252 382.973 167.432 382.629 167.792C382.293 168.152 382.125 168.676 382.125 169.364V173H381.033V166.424H382.125V167.36C382.341 167.024 382.633 166.764 383.001 166.58C383.377 166.396 383.789 166.304 384.237 166.304ZM390.041 167.324V171.2C390.041 171.52 390.109 171.748 390.245 171.884C390.381 172.012 390.617 172.076 390.953 172.076H391.757V173H390.773C390.165 173 389.709 172.86 389.405 172.58C389.101 172.3 388.949 171.84 388.949 171.2V167.324H388.097V166.424H388.949V164.768H390.041V166.424H391.757V167.324H390.041ZM398.912 166.424V173H397.82V172.028C397.612 172.364 397.32 172.628 396.944 172.82C396.576 173.004 396.168 173.096 395.72 173.096C395.208 173.096 394.748 172.992 394.34 172.784C393.932 172.568 393.608 172.248 393.368 171.824C393.136 171.4 393.02 170.884 393.02 170.276V166.424H394.1V170.132C394.1 170.78 394.264 171.28 394.592 171.632C394.92 171.976 395.368 172.148 395.936 172.148C396.52 172.148 396.98 171.968 397.316 171.608C397.652 171.248 397.82 170.724 397.82 170.036V166.424H398.912ZM403.084 173.108C402.58 173.108 402.128 173.024 401.728 172.856C401.328 172.68 401.012 172.44 400.78 172.136C400.548 171.824 400.42 171.468 400.396 171.068H401.524C401.556 171.396 401.708 171.664 401.98 171.872C402.26 172.08 402.624 172.184 403.072 172.184C403.488 172.184 403.816 172.092 404.056 171.908C404.296 171.724 404.416 171.492 404.416 171.212C404.416 170.924 404.288 170.712 404.032 170.576C403.776 170.432 403.38 170.292 402.844 170.156C402.356 170.028 401.956 169.9 401.644 169.772C401.34 169.636 401.076 169.44 400.852 169.184C400.636 168.92 400.528 168.576 400.528 168.152C400.528 167.816 400.628 167.508 400.828 167.228C401.028 166.948 401.312 166.728 401.68 166.568C402.048 166.4 402.468 166.316 402.94 166.316C403.668 166.316 404.256 166.5 404.704 166.868C405.152 167.236 405.392 167.74 405.424 168.38H404.332C404.308 168.036 404.168 167.76 403.912 167.552C403.664 167.344 403.328 167.24 402.904 167.24C402.512 167.24 402.2 167.324 401.968 167.492C401.736 167.66 401.62 167.88 401.62 168.152C401.62 168.368 401.688 168.548 401.824 168.692C401.968 168.828 402.144 168.94 402.352 169.028C402.568 169.108 402.864 169.2 403.24 169.304C403.712 169.432 404.096 169.56 404.392 169.688C404.688 169.808 404.94 169.992 405.148 170.24C405.364 170.488 405.476 170.812 405.484 171.212C405.484 171.572 405.384 171.896 405.184 172.184C404.984 172.472 404.7 172.7 404.332 172.868C403.972 173.028 403.556 173.108 403.084 173.108ZM407.59 165.356C407.382 165.356 407.206 165.284 407.062 165.14C406.918 164.996 406.846 164.82 406.846 164.612C406.846 164.404 406.918 164.228 407.062 164.084C407.206 163.94 407.382 163.868 407.59 163.868C407.79 163.868 407.958 163.94 408.094 164.084C408.238 164.228 408.31 164.404 408.31 164.612C408.31 164.82 408.238 164.996 408.094 165.14C407.958 165.284 407.79 165.356 407.59 165.356ZM408.118 166.424V173H407.026V166.424H408.118ZM409.571 169.688C409.571 169.016 409.707 168.428 409.979 167.924C410.251 167.412 410.623 167.016 411.095 166.736C411.575 166.456 412.107 166.316 412.691 166.316C413.267 166.316 413.767 166.44 414.191 166.688C414.615 166.936 414.931 167.248 415.139 167.624V166.424H416.243V173H415.139V171.776C414.923 172.16 414.599 172.48 414.167 172.736C413.743 172.984 413.247 173.108 412.679 173.108C412.095 173.108 411.567 172.964 411.095 172.676C410.623 172.388 410.251 171.984 409.979 171.464C409.707 170.944 409.571 170.352 409.571 169.688ZM415.139 169.7C415.139 169.204 415.039 168.772 414.839 168.404C414.639 168.036 414.367 167.756 414.023 167.564C413.687 167.364 413.315 167.264 412.907 167.264C412.499 167.264 412.127 167.36 411.791 167.552C411.455 167.744 411.187 168.024 410.987 168.392C410.787 168.76 410.687 169.192 410.687 169.688C410.687 170.192 410.787 170.632 410.987 171.008C411.187 171.376 411.455 171.66 411.791 171.86C412.127 172.052 412.499 172.148 412.907 172.148C413.315 172.148 413.687 172.052 414.023 171.86C414.367 171.66 414.639 171.376 414.839 171.008C415.039 170.632 415.139 170.196 415.139 169.7ZM420.416 173.108C419.912 173.108 419.46 173.024 419.06 172.856C418.66 172.68 418.344 172.44 418.112 172.136C417.88 171.824 417.752 171.468 417.728 171.068H418.856C418.888 171.396 419.04 171.664 419.312 171.872C419.592 172.08 419.956 172.184 420.404 172.184C420.82 172.184 421.148 172.092 421.388 171.908C421.628 171.724 421.748 171.492 421.748 171.212C421.748 170.924 421.62 170.712 421.364 170.576C421.108 170.432 420.712 170.292 420.176 170.156C419.688 170.028 419.288 169.9 418.976 169.772C418.672 169.636 418.408 169.44 418.184 169.184C417.968 168.92 417.86 168.576 417.86 168.152C417.86 167.816 417.96 167.508 418.16 167.228C418.36 166.948 418.644 166.728 419.012 166.568C419.38 166.4 419.8 166.316 420.272 166.316C421 166.316 421.588 166.5 422.036 166.868C422.484 167.236 422.724 167.74 422.756 168.38H421.664C421.64 168.036 421.5 167.76 421.244 167.552C420.996 167.344 420.66 167.24 420.236 167.24C419.844 167.24 419.532 167.324 419.3 167.492C419.068 167.66 418.952 167.88 418.952 168.152C418.952 168.368 419.02 168.548 419.156 168.692C419.3 168.828 419.476 168.94 419.684 169.028C419.9 169.108 420.196 169.2 420.572 169.304C421.044 169.432 421.428 169.56 421.724 169.688C422.02 169.808 422.272 169.992 422.48 170.24C422.696 170.488 422.808 170.812 422.816 171.212C422.816 171.572 422.716 171.896 422.516 172.184C422.316 172.472 422.032 172.7 421.664 172.868C421.304 173.028 420.888 173.108 420.416 173.108ZM425.69 167.324V171.2C425.69 171.52 425.758 171.748 425.894 171.884C426.03 172.012 426.266 172.076 426.602 172.076H427.406V173H426.422C425.814 173 425.358 172.86 425.054 172.58C424.75 172.3 424.598 171.84 424.598 171.2V167.324H423.746V166.424H424.598V164.768H425.69V166.424H427.406V167.324H425.69ZM440.688 166.424L438.636 173H437.508L435.924 167.78L434.34 173H433.212L431.148 166.424H432.264L433.776 171.944L435.408 166.424H436.524L438.12 171.956L439.608 166.424H440.688ZM442.336 165.356C442.128 165.356 441.952 165.284 441.808 165.14C441.664 164.996 441.592 164.82 441.592 164.612C441.592 164.404 441.664 164.228 441.808 164.084C441.952 163.94 442.128 163.868 442.336 163.868C442.536 163.868 442.704 163.94 442.84 164.084C442.984 164.228 443.056 164.404 443.056 164.612C443.056 164.82 442.984 164.996 442.84 165.14C442.704 165.284 442.536 165.356 442.336 165.356ZM442.864 166.424V173H441.772V166.424H442.864ZM446.057 167.324V171.2C446.057 171.52 446.125 171.748 446.261 171.884C446.397 172.012 446.633 172.076 446.969 172.076H447.773V173H446.789C446.181 173 445.725 172.86 445.421 172.58C445.117 172.3 444.965 171.84 444.965 171.2V167.324H444.113V166.424H444.965V164.768H446.057V166.424H447.773V167.324H446.057ZM452.36 166.304C452.856 166.304 453.304 166.412 453.704 166.628C454.104 166.836 454.416 167.152 454.64 167.576C454.872 168 454.988 168.516 454.988 169.124V173H453.908V169.28C453.908 168.624 453.744 168.124 453.416 167.78C453.088 167.428 452.64 167.252 452.072 167.252C451.496 167.252 451.036 167.432 450.692 167.792C450.356 168.152 450.188 168.676 450.188 169.364V173H449.096V164.12H450.188V167.36C450.404 167.024 450.7 166.764 451.076 166.58C451.46 166.396 451.888 166.304 452.36 166.304ZM462.623 173.084C462.071 173.084 461.575 172.988 461.135 172.796C460.703 172.596 460.363 172.324 460.115 171.98C459.867 171.628 459.739 171.224 459.731 170.768H460.895C460.935 171.16 461.095 171.492 461.375 171.764C461.663 172.028 462.079 172.16 462.623 172.16C463.143 172.16 463.551 172.032 463.847 171.776C464.151 171.512 464.303 171.176 464.303 170.768C464.303 170.448 464.215 170.188 464.039 169.988C463.863 169.788 463.643 169.636 463.379 169.532C463.115 169.428 462.759 169.316 462.311 169.196C461.759 169.052 461.315 168.908 460.979 168.764C460.651 168.62 460.367 168.396 460.127 168.092C459.895 167.78 459.779 167.364 459.779 166.844C459.779 166.388 459.895 165.984 460.127 165.632C460.359 165.28 460.683 165.008 461.099 164.816C461.523 164.624 462.007 164.528 462.551 164.528C463.335 164.528 463.975 164.724 464.471 165.116C464.975 165.508 465.259 166.028 465.323 166.676H464.123C464.083 166.356 463.915 166.076 463.619 165.836C463.323 165.588 462.931 165.464 462.443 165.464C461.987 165.464 461.615 165.584 461.327 165.824C461.039 166.056 460.895 166.384 460.895 166.808C460.895 167.112 460.979 167.36 461.147 167.552C461.323 167.744 461.535 167.892 461.783 167.996C462.039 168.092 462.395 168.204 462.851 168.332C463.403 168.484 463.847 168.636 464.183 168.788C464.519 168.932 464.807 169.16 465.047 169.472C465.287 169.776 465.407 170.192 465.407 170.72C465.407 171.128 465.299 171.512 465.083 171.872C464.867 172.232 464.547 172.524 464.123 172.748C463.699 172.972 463.199 173.084 462.623 173.084ZM469.882 173.108C469.266 173.108 468.706 172.968 468.202 172.688C467.706 172.408 467.314 172.012 467.026 171.5C466.746 170.98 466.606 170.38 466.606 169.7C466.606 169.028 466.75 168.436 467.038 167.924C467.334 167.404 467.734 167.008 468.238 166.736C468.742 166.456 469.306 166.316 469.93 166.316C470.554 166.316 471.118 166.456 471.622 166.736C472.126 167.008 472.522 167.4 472.81 167.912C473.106 168.424 473.254 169.02 473.254 169.7C473.254 170.38 473.102 170.98 472.798 171.5C472.502 172.012 472.098 172.408 471.586 172.688C471.074 172.968 470.506 173.108 469.882 173.108ZM469.882 172.148C470.274 172.148 470.642 172.056 470.986 171.872C471.33 171.688 471.606 171.412 471.814 171.044C472.03 170.676 472.138 170.228 472.138 169.7C472.138 169.172 472.034 168.724 471.826 168.356C471.618 167.988 471.346 167.716 471.01 167.54C470.674 167.356 470.31 167.264 469.918 167.264C469.518 167.264 469.15 167.356 468.814 167.54C468.486 167.716 468.222 167.988 468.022 168.356C467.822 168.724 467.722 169.172 467.722 169.7C467.722 170.236 467.818 170.688 468.01 171.056C468.21 171.424 468.474 171.7 468.802 171.884C469.13 172.06 469.49 172.148 469.882 172.148ZM477.366 167.324H475.986V173H474.894V167.324H474.042V166.424H474.894V165.956C474.894 165.22 475.082 164.684 475.458 164.348C475.842 164.004 476.454 163.832 477.294 163.832V164.744C476.814 164.744 476.474 164.84 476.274 165.032C476.082 165.216 475.986 165.524 475.986 165.956V166.424H477.366V167.324ZM479.971 167.324V171.2C479.971 171.52 480.039 171.748 480.175 171.884C480.311 172.012 480.547 172.076 480.883 172.076H481.687V173H480.703C480.095 173 479.639 172.86 479.335 172.58C479.031 172.3 478.879 171.84 478.879 171.2V167.324H478.027V166.424H478.879V164.768H479.971V166.424H481.687V167.324H479.971ZM491.77 166.424L489.718 173H488.59L487.006 167.78L485.422 173H484.294L482.23 166.424H483.346L484.858 171.944L486.49 166.424H487.606L489.202 171.956L490.69 166.424H491.77ZM492.446 169.688C492.446 169.016 492.582 168.428 492.854 167.924C493.126 167.412 493.498 167.016 493.97 166.736C494.45 166.456 494.982 166.316 495.566 166.316C496.142 166.316 496.642 166.44 497.066 166.688C497.49 166.936 497.806 167.248 498.014 167.624V166.424H499.118V173H498.014V171.776C497.798 172.16 497.474 172.48 497.042 172.736C496.618 172.984 496.122 173.108 495.554 173.108C494.97 173.108 494.442 172.964 493.97 172.676C493.498 172.388 493.126 171.984 492.854 171.464C492.582 170.944 492.446 170.352 492.446 169.688ZM498.014 169.7C498.014 169.204 497.914 168.772 497.714 168.404C497.514 168.036 497.242 167.756 496.898 167.564C496.562 167.364 496.19 167.264 495.782 167.264C495.374 167.264 495.002 167.36 494.666 167.552C494.33 167.744 494.062 168.024 493.862 168.392C493.662 168.76 493.562 169.192 493.562 169.688C493.562 170.192 493.662 170.632 493.862 171.008C494.062 171.376 494.33 171.66 494.666 171.86C495.002 172.052 495.374 172.148 495.782 172.148C496.19 172.148 496.562 172.052 496.898 171.86C497.242 171.66 497.514 171.376 497.714 171.008C497.914 170.632 498.014 170.196 498.014 169.7ZM502.055 167.492C502.247 167.116 502.519 166.824 502.871 166.616C503.231 166.408 503.667 166.304 504.179 166.304V167.432H503.891C502.667 167.432 502.055 168.096 502.055 169.424V173H500.963V166.424H502.055V167.492ZM511.44 169.46C511.44 169.668 511.428 169.888 511.404 170.12H506.148C506.188 170.768 506.408 171.276 506.808 171.644C507.216 172.004 507.708 172.184 508.284 172.184C508.756 172.184 509.148 172.076 509.46 171.86C509.78 171.636 510.004 171.34 510.132 170.972H511.308C511.132 171.604 510.78 172.12 510.252 172.52C509.724 172.912 509.068 173.108 508.284 173.108C507.66 173.108 507.1 172.968 506.604 172.688C506.116 172.408 505.732 172.012 505.452 171.5C505.172 170.98 505.032 170.38 505.032 169.7C505.032 169.02 505.168 168.424 505.44 167.912C505.712 167.4 506.092 167.008 506.58 166.736C507.076 166.456 507.644 166.316 508.284 166.316C508.908 166.316 509.46 166.452 509.94 166.724C510.42 166.996 510.788 167.372 511.044 167.852C511.308 168.324 511.44 168.86 511.44 169.46ZM510.312 169.232C510.312 168.816 510.22 168.46 510.036 168.164C509.852 167.86 509.6 167.632 509.28 167.48C508.968 167.32 508.62 167.24 508.236 167.24C507.684 167.24 507.212 167.416 506.82 167.768C506.436 168.12 506.216 168.608 506.16 169.232H510.312ZM521.024 171.14H517.376L516.704 173H515.552L518.576 164.684H519.836L522.848 173H521.696L521.024 171.14ZM520.712 170.252L519.2 166.028L517.688 170.252H520.712ZM525.258 167.492C525.45 167.116 525.722 166.824 526.074 166.616C526.434 166.408 526.87 166.304 527.382 166.304V167.432H527.094C525.87 167.432 525.258 168.096 525.258 169.424V173H524.166V166.424H525.258V167.492ZM528.235 169.7C528.235 169.02 528.371 168.428 528.643 167.924C528.915 167.412 529.291 167.016 529.771 166.736C530.259 166.456 530.815 166.316 531.439 166.316C532.247 166.316 532.911 166.512 533.431 166.904C533.959 167.296 534.307 167.84 534.475 168.536H533.299C533.187 168.136 532.967 167.82 532.639 167.588C532.319 167.356 531.919 167.24 531.439 167.24C530.815 167.24 530.311 167.456 529.927 167.888C529.543 168.312 529.351 168.916 529.351 169.7C529.351 170.492 529.543 171.104 529.927 171.536C530.311 171.968 530.815 172.184 531.439 172.184C531.919 172.184 532.319 172.072 532.639 171.848C532.959 171.624 533.179 171.304 533.299 170.888H534.475C534.299 171.56 533.947 172.1 533.419 172.508C532.891 172.908 532.231 173.108 531.439 173.108C530.815 173.108 530.259 172.968 529.771 172.688C529.291 172.408 528.915 172.012 528.643 171.5C528.371 170.988 528.235 170.388 528.235 169.7ZM539.196 166.304C539.692 166.304 540.14 166.412 540.54 166.628C540.94 166.836 541.252 167.152 541.476 167.576C541.708 168 541.824 168.516 541.824 169.124V173H540.744V169.28C540.744 168.624 540.58 168.124 540.252 167.78C539.924 167.428 539.476 167.252 538.908 167.252C538.332 167.252 537.872 167.432 537.528 167.792C537.192 168.152 537.024 168.676 537.024 169.364V173H535.932V164.12H537.024V167.36C537.24 167.024 537.536 166.764 537.912 166.58C538.296 166.396 538.724 166.304 539.196 166.304ZM544.172 165.356C543.964 165.356 543.788 165.284 543.644 165.14C543.5 164.996 543.428 164.82 543.428 164.612C543.428 164.404 543.5 164.228 543.644 164.084C543.788 163.94 543.964 163.868 544.172 163.868C544.372 163.868 544.54 163.94 544.676 164.084C544.82 164.228 544.892 164.404 544.892 164.612C544.892 164.82 544.82 164.996 544.676 165.14C544.54 165.284 544.372 165.356 544.172 165.356ZM544.7 166.424V173H543.608V166.424H544.7ZM547.893 167.324V171.2C547.893 171.52 547.961 171.748 548.097 171.884C548.233 172.012 548.469 172.076 548.805 172.076H549.609V173H548.625C548.017 173 547.561 172.86 547.257 172.58C546.953 172.3 546.801 171.84 546.801 171.2V167.324H545.949V166.424H546.801V164.768H547.893V166.424H549.609V167.324H547.893ZM556.932 169.46C556.932 169.668 556.92 169.888 556.896 170.12H551.64C551.68 170.768 551.9 171.276 552.3 171.644C552.708 172.004 553.2 172.184 553.776 172.184C554.248 172.184 554.64 172.076 554.952 171.86C555.272 171.636 555.496 171.34 555.624 170.972H556.8C556.624 171.604 556.272 172.12 555.744 172.52C555.216 172.912 554.56 173.108 553.776 173.108C553.152 173.108 552.592 172.968 552.096 172.688C551.608 172.408 551.224 172.012 550.944 171.5C550.664 170.98 550.524 170.38 550.524 169.7C550.524 169.02 550.66 168.424 550.932 167.912C551.204 167.4 551.584 167.008 552.072 166.736C552.568 166.456 553.136 166.316 553.776 166.316C554.4 166.316 554.952 166.452 555.432 166.724C555.912 166.996 556.28 167.372 556.536 167.852C556.8 168.324 556.932 168.86 556.932 169.46ZM555.804 169.232C555.804 168.816 555.712 168.46 555.528 168.164C555.344 167.86 555.092 167.632 554.772 167.48C554.46 167.32 554.112 167.24 553.728 167.24C553.176 167.24 552.704 167.416 552.312 167.768C551.928 168.12 551.708 168.608 551.652 169.232H555.804ZM557.965 169.7C557.965 169.02 558.101 168.428 558.373 167.924C558.645 167.412 559.021 167.016 559.501 166.736C559.989 166.456 560.545 166.316 561.169 166.316C561.977 166.316 562.641 166.512 563.161 166.904C563.689 167.296 564.037 167.84 564.205 168.536H563.029C562.917 168.136 562.697 167.82 562.369 167.588C562.049 167.356 561.649 167.24 561.169 167.24C560.545 167.24 560.041 167.456 559.657 167.888C559.273 168.312 559.081 168.916 559.081 169.7C559.081 170.492 559.273 171.104 559.657 171.536C560.041 171.968 560.545 172.184 561.169 172.184C561.649 172.184 562.049 172.072 562.369 171.848C562.689 171.624 562.909 171.304 563.029 170.888H564.205C564.029 171.56 563.677 172.1 563.149 172.508C562.621 172.908 561.961 173.108 561.169 173.108C560.545 173.108 559.989 172.968 559.501 172.688C559.021 172.408 558.645 172.012 558.373 171.5C558.101 170.988 557.965 170.388 557.965 169.7ZM566.994 167.324V171.2C566.994 171.52 567.062 171.748 567.198 171.884C567.334 172.012 567.57 172.076 567.906 172.076H568.71V173H567.726C567.118 173 566.662 172.86 566.358 172.58C566.054 172.3 565.902 171.84 565.902 171.2V167.324H565.05V166.424H565.902V164.768H566.994V166.424H568.71V167.324H566.994ZM575.865 166.424V173H574.773V172.028C574.565 172.364 574.273 172.628 573.897 172.82C573.529 173.004 573.121 173.096 572.673 173.096C572.161 173.096 571.701 172.992 571.293 172.784C570.885 172.568 570.561 172.248 570.321 171.824C570.089 171.4 569.973 170.884 569.973 170.276V166.424H571.053V170.132C571.053 170.78 571.217 171.28 571.545 171.632C571.873 171.976 572.321 172.148 572.889 172.148C573.473 172.148 573.933 171.968 574.269 171.608C574.605 171.248 574.773 170.724 574.773 170.036V166.424H575.865ZM578.801 167.492C578.993 167.116 579.265 166.824 579.617 166.616C579.977 166.408 580.413 166.304 580.925 166.304V167.432H580.637C579.413 167.432 578.801 168.096 578.801 169.424V173H577.709V166.424H578.801V167.492ZM588.186 169.46C588.186 169.668 588.174 169.888 588.15 170.12H582.894C582.934 170.768 583.154 171.276 583.554 171.644C583.962 172.004 584.454 172.184 585.03 172.184C585.502 172.184 585.894 172.076 586.206 171.86C586.526 171.636 586.75 171.34 586.878 170.972H588.054C587.878 171.604 587.526 172.12 586.998 172.52C586.47 172.912 585.814 173.108 585.03 173.108C584.406 173.108 583.846 172.968 583.35 172.688C582.862 172.408 582.478 172.012 582.198 171.5C581.918 170.98 581.778 170.38 581.778 169.7C581.778 169.02 581.914 168.424 582.186 167.912C582.458 167.4 582.838 167.008 583.326 166.736C583.822 166.456 584.39 166.316 585.03 166.316C585.654 166.316 586.206 166.452 586.686 166.724C587.166 166.996 587.534 167.372 587.79 167.852C588.054 168.324 588.186 168.86 588.186 169.46ZM587.058 169.232C587.058 168.816 586.966 168.46 586.782 168.164C586.598 167.86 586.346 167.632 586.026 167.48C585.714 167.32 585.366 167.24 584.982 167.24C584.43 167.24 583.958 167.416 583.566 167.768C583.182 168.12 582.962 168.608 582.906 169.232H587.058ZM590.755 171.488L589.411 174.716H588.679L589.555 171.488H590.755ZM597.809 164.636C598.721 164.636 599.509 164.808 600.173 165.152C600.845 165.488 601.357 165.972 601.709 166.604C602.069 167.236 602.249 167.98 602.249 168.836C602.249 169.692 602.069 170.436 601.709 171.068C601.357 171.692 600.845 172.172 600.173 172.508C599.509 172.836 598.721 173 597.809 173H595.205V164.636H597.809ZM597.809 172.1C598.889 172.1 599.713 171.816 600.281 171.248C600.849 170.672 601.133 169.868 601.133 168.836C601.133 167.796 600.845 166.984 600.269 166.4C599.701 165.816 598.881 165.524 597.809 165.524H596.297V172.1H597.809ZM609.69 169.46C609.69 169.668 609.678 169.888 609.654 170.12H604.398C604.438 170.768 604.658 171.276 605.058 171.644C605.466 172.004 605.958 172.184 606.534 172.184C607.006 172.184 607.398 172.076 607.71 171.86C608.03 171.636 608.254 171.34 608.382 170.972H609.558C609.382 171.604 609.03 172.12 608.502 172.52C607.974 172.912 607.318 173.108 606.534 173.108C605.91 173.108 605.35 172.968 604.854 172.688C604.366 172.408 603.982 172.012 603.702 171.5C603.422 170.98 603.282 170.38 603.282 169.7C603.282 169.02 603.418 168.424 603.69 167.912C603.962 167.4 604.342 167.008 604.83 166.736C605.326 166.456 605.894 166.316 606.534 166.316C607.158 166.316 607.71 166.452 608.19 166.724C608.67 166.996 609.038 167.372 609.294 167.852C609.558 168.324 609.69 168.86 609.69 169.46ZM608.562 169.232C608.562 168.816 608.47 168.46 608.286 168.164C608.102 167.86 607.85 167.632 607.53 167.48C607.218 167.32 606.87 167.24 606.486 167.24C605.934 167.24 605.462 167.416 605.07 167.768C604.686 168.12 604.466 168.608 604.41 169.232H608.562ZM613.459 173.108C612.955 173.108 612.503 173.024 612.103 172.856C611.703 172.68 611.387 172.44 611.155 172.136C610.923 171.824 610.795 171.468 610.771 171.068H611.899C611.931 171.396 612.083 171.664 612.355 171.872C612.635 172.08 612.999 172.184 613.447 172.184C613.863 172.184 614.191 172.092 614.431 171.908C614.671 171.724 614.791 171.492 614.791 171.212C614.791 170.924 614.663 170.712 614.407 170.576C614.151 170.432 613.755 170.292 613.219 170.156C612.731 170.028 612.331 169.9 612.019 169.772C611.715 169.636 611.451 169.44 611.227 169.184C611.011 168.92 610.903 168.576 610.903 168.152C610.903 167.816 611.003 167.508 611.203 167.228C611.403 166.948 611.687 166.728 612.055 166.568C612.423 166.4 612.843 166.316 613.315 166.316C614.043 166.316 614.631 166.5 615.079 166.868C615.527 167.236 615.767 167.74 615.799 168.38H614.707C614.683 168.036 614.543 167.76 614.287 167.552C614.039 167.344 613.703 167.24 613.279 167.24C612.887 167.24 612.575 167.324 612.343 167.492C612.111 167.66 611.995 167.88 611.995 168.152C611.995 168.368 612.063 168.548 612.199 168.692C612.343 168.828 612.519 168.94 612.727 169.028C612.943 169.108 613.239 169.2 613.615 169.304C614.087 169.432 614.471 169.56 614.767 169.688C615.063 169.808 615.315 169.992 615.523 170.24C615.739 170.488 615.851 170.812 615.859 171.212C615.859 171.572 615.759 171.896 615.559 172.184C615.359 172.472 615.075 172.7 614.707 172.868C614.347 173.028 613.931 173.108 613.459 173.108ZM617.965 165.356C617.757 165.356 617.581 165.284 617.437 165.14C617.293 164.996 617.221 164.82 617.221 164.612C617.221 164.404 617.293 164.228 617.437 164.084C617.581 163.94 617.757 163.868 617.965 163.868C618.165 163.868 618.333 163.94 618.469 164.084C618.613 164.228 618.685 164.404 618.685 164.612C618.685 164.82 618.613 164.996 618.469 165.14C618.333 165.284 618.165 165.356 617.965 165.356ZM618.493 166.424V173H617.401V166.424H618.493ZM623.066 166.316C623.634 166.316 624.13 166.44 624.554 166.688C624.986 166.936 625.306 167.248 625.514 167.624V166.424H626.618V173.144C626.618 173.744 626.49 174.276 626.234 174.74C625.978 175.212 625.61 175.58 625.13 175.844C624.658 176.108 624.106 176.24 623.474 176.24C622.61 176.24 621.89 176.036 621.314 175.628C620.738 175.22 620.398 174.664 620.294 173.96H621.374C621.494 174.36 621.742 174.68 622.118 174.92C622.494 175.168 622.946 175.292 623.474 175.292C624.074 175.292 624.562 175.104 624.938 174.728C625.322 174.352 625.514 173.824 625.514 173.144V171.764C625.298 172.148 624.978 172.468 624.554 172.724C624.13 172.98 623.634 173.108 623.066 173.108C622.482 173.108 621.95 172.964 621.47 172.676C620.998 172.388 620.626 171.984 620.354 171.464C620.082 170.944 619.946 170.352 619.946 169.688C619.946 169.016 620.082 168.428 620.354 167.924C620.626 167.412 620.998 167.016 621.47 166.736C621.95 166.456 622.482 166.316 623.066 166.316ZM625.514 169.7C625.514 169.204 625.414 168.772 625.214 168.404C625.014 168.036 624.742 167.756 624.398 167.564C624.062 167.364 623.69 167.264 623.282 167.264C622.874 167.264 622.502 167.36 622.166 167.552C621.83 167.744 621.562 168.024 621.362 168.392C621.162 168.76 621.062 169.192 621.062 169.688C621.062 170.192 621.162 170.632 621.362 171.008C621.562 171.376 621.83 171.66 622.166 171.86C622.502 172.052 622.874 172.148 623.282 172.148C623.69 172.148 624.062 172.052 624.398 171.86C624.742 171.66 625.014 171.376 625.214 171.008C625.414 170.632 625.514 170.196 625.514 169.7ZM631.667 166.304C632.467 166.304 633.115 166.548 633.611 167.036C634.107 167.516 634.355 168.212 634.355 169.124V173H633.275V169.28C633.275 168.624 633.111 168.124 632.783 167.78C632.455 167.428 632.007 167.252 631.439 167.252C630.863 167.252 630.403 167.432 630.059 167.792C629.723 168.152 629.555 168.676 629.555 169.364V173H628.463V166.424H629.555V167.36C629.771 167.024 630.063 166.764 630.431 166.58C630.807 166.396 631.219 166.304 631.667 166.304ZM352.232 191.084C351.68 191.084 351.184 190.988 350.744 190.796C350.312 190.596 349.972 190.324 349.724 189.98C349.476 189.628 349.348 189.224 349.34 188.768H350.504C350.544 189.16 350.704 189.492 350.984 189.764C351.272 190.028 351.688 190.16 352.232 190.16C352.752 190.16 353.16 190.032 353.456 189.776C353.76 189.512 353.912 189.176 353.912 188.768C353.912 188.448 353.824 188.188 353.648 187.988C353.472 187.788 353.252 187.636 352.988 187.532C352.724 187.428 352.368 187.316 351.92 187.196C351.368 187.052 350.924 186.908 350.588 186.764C350.26 186.62 349.976 186.396 349.736 186.092C349.504 185.78 349.388 185.364 349.388 184.844C349.388 184.388 349.504 183.984 349.736 183.632C349.968 183.28 350.292 183.008 350.708 182.816C351.132 182.624 351.616 182.528 352.16 182.528C352.944 182.528 353.584 182.724 354.08 183.116C354.584 183.508 354.868 184.028 354.932 184.676H353.732C353.692 184.356 353.524 184.076 353.228 183.836C352.932 183.588 352.54 183.464 352.052 183.464C351.596 183.464 351.224 183.584 350.936 183.824C350.648 184.056 350.504 184.384 350.504 184.808C350.504 185.112 350.588 185.36 350.756 185.552C350.932 185.744 351.144 185.892 351.392 185.996C351.648 186.092 352.004 186.204 352.46 186.332C353.012 186.484 353.456 186.636 353.792 186.788C354.128 186.932 354.416 187.16 354.656 187.472C354.896 187.776 355.016 188.192 355.016 188.72C355.016 189.128 354.908 189.512 354.692 189.872C354.476 190.232 354.156 190.524 353.732 190.748C353.308 190.972 352.808 191.084 352.232 191.084ZM362.287 184.424L358.327 194.096H357.199L358.495 190.928L355.843 184.424H357.055L359.119 189.752L361.159 184.424H362.287ZM365.713 191.108C365.209 191.108 364.757 191.024 364.357 190.856C363.957 190.68 363.641 190.44 363.409 190.136C363.177 189.824 363.049 189.468 363.025 189.068H364.153C364.185 189.396 364.337 189.664 364.609 189.872C364.889 190.08 365.253 190.184 365.701 190.184C366.117 190.184 366.445 190.092 366.685 189.908C366.925 189.724 367.045 189.492 367.045 189.212C367.045 188.924 366.917 188.712 366.661 188.576C366.405 188.432 366.009 188.292 365.473 188.156C364.985 188.028 364.585 187.9 364.273 187.772C363.969 187.636 363.705 187.44 363.481 187.184C363.265 186.92 363.157 186.576 363.157 186.152C363.157 185.816 363.257 185.508 363.457 185.228C363.657 184.948 363.941 184.728 364.309 184.568C364.677 184.4 365.097 184.316 365.569 184.316C366.297 184.316 366.885 184.5 367.333 184.868C367.781 185.236 368.021 185.74 368.053 186.38H366.961C366.937 186.036 366.797 185.76 366.541 185.552C366.293 185.344 365.957 185.24 365.533 185.24C365.141 185.24 364.829 185.324 364.597 185.492C364.365 185.66 364.249 185.88 364.249 186.152C364.249 186.368 364.317 186.548 364.453 186.692C364.597 186.828 364.773 186.94 364.981 187.028C365.197 187.108 365.493 187.2 365.869 187.304C366.341 187.432 366.725 187.56 367.021 187.688C367.317 187.808 367.569 187.992 367.777 188.24C367.993 188.488 368.105 188.812 368.113 189.212C368.113 189.572 368.013 189.896 367.813 190.184C367.613 190.472 367.329 190.7 366.961 190.868C366.601 191.028 366.185 191.108 365.713 191.108ZM370.986 185.324V189.2C370.986 189.52 371.054 189.748 371.19 189.884C371.326 190.012 371.562 190.076 371.898 190.076H372.702V191H371.718C371.11 191 370.654 190.86 370.35 190.58C370.046 190.3 369.894 189.84 369.894 189.2V185.324H369.042V184.424H369.894V182.768H370.986V184.424H372.702V185.324H370.986ZM380.026 187.46C380.026 187.668 380.014 187.888 379.99 188.12H374.734C374.774 188.768 374.994 189.276 375.394 189.644C375.802 190.004 376.294 190.184 376.87 190.184C377.342 190.184 377.734 190.076 378.046 189.86C378.366 189.636 378.59 189.34 378.718 188.972H379.894C379.718 189.604 379.366 190.12 378.838 190.52C378.31 190.912 377.654 191.108 376.87 191.108C376.246 191.108 375.686 190.968 375.19 190.688C374.702 190.408 374.318 190.012 374.038 189.5C373.758 188.98 373.618 188.38 373.618 187.7C373.618 187.02 373.754 186.424 374.026 185.912C374.298 185.4 374.678 185.008 375.166 184.736C375.662 184.456 376.23 184.316 376.87 184.316C377.494 184.316 378.046 184.452 378.526 184.724C379.006 184.996 379.374 185.372 379.63 185.852C379.894 186.324 380.026 186.86 380.026 187.46ZM378.898 187.232C378.898 186.816 378.806 186.46 378.622 186.164C378.438 185.86 378.186 185.632 377.866 185.48C377.554 185.32 377.206 185.24 376.822 185.24C376.27 185.24 375.798 185.416 375.406 185.768C375.022 186.12 374.802 186.608 374.746 187.232H378.898ZM389.375 184.304C389.887 184.304 390.343 184.412 390.743 184.628C391.143 184.836 391.459 185.152 391.691 185.576C391.923 186 392.039 186.516 392.039 187.124V191H390.959V187.28C390.959 186.624 390.795 186.124 390.467 185.78C390.147 185.428 389.711 185.252 389.159 185.252C388.591 185.252 388.139 185.436 387.803 185.804C387.467 186.164 387.299 186.688 387.299 187.376V191H386.219V187.28C386.219 186.624 386.055 186.124 385.727 185.78C385.407 185.428 384.971 185.252 384.419 185.252C383.851 185.252 383.399 185.436 383.063 185.804C382.727 186.164 382.559 186.688 382.559 187.376V191H381.467V184.424H382.559V185.372C382.775 185.028 383.063 184.764 383.423 184.58C383.791 184.396 384.195 184.304 384.635 184.304C385.187 184.304 385.675 184.428 386.099 184.676C386.523 184.924 386.839 185.288 387.047 185.768C387.231 185.304 387.535 184.944 387.959 184.688C388.383 184.432 388.855 184.304 389.375 184.304ZM396.621 187.688C396.621 187.016 396.757 186.428 397.029 185.924C397.301 185.412 397.673 185.016 398.145 184.736C398.625 184.456 399.157 184.316 399.741 184.316C400.317 184.316 400.817 184.44 401.241 184.688C401.665 184.936 401.981 185.248 402.189 185.624V184.424H403.293V191H402.189V189.776C401.973 190.16 401.649 190.48 401.217 190.736C400.793 190.984 400.297 191.108 399.729 191.108C399.145 191.108 398.617 190.964 398.145 190.676C397.673 190.388 397.301 189.984 397.029 189.464C396.757 188.944 396.621 188.352 396.621 187.688ZM402.189 187.7C402.189 187.204 402.089 186.772 401.889 186.404C401.689 186.036 401.417 185.756 401.073 185.564C400.737 185.364 400.365 185.264 399.957 185.264C399.549 185.264 399.177 185.36 398.841 185.552C398.505 185.744 398.237 186.024 398.037 186.392C397.837 186.76 397.737 187.192 397.737 187.688C397.737 188.192 397.837 188.632 398.037 189.008C398.237 189.376 398.505 189.66 398.841 189.86C399.177 190.052 399.549 190.148 399.957 190.148C400.365 190.148 400.737 190.052 401.073 189.86C401.417 189.66 401.689 189.376 401.889 189.008C402.089 188.632 402.189 188.196 402.189 187.7ZM408.343 184.304C409.143 184.304 409.791 184.548 410.287 185.036C410.783 185.516 411.031 186.212 411.031 187.124V191H409.951V187.28C409.951 186.624 409.787 186.124 409.459 185.78C409.131 185.428 408.683 185.252 408.115 185.252C407.539 185.252 407.079 185.432 406.735 185.792C406.399 186.152 406.231 186.676 406.231 187.364V191H405.139V184.424H406.231V185.36C406.447 185.024 406.739 184.764 407.107 184.58C407.483 184.396 407.895 184.304 408.343 184.304ZM412.407 187.688C412.407 187.016 412.543 186.428 412.815 185.924C413.087 185.412 413.459 185.016 413.931 184.736C414.411 184.456 414.947 184.316 415.539 184.316C416.051 184.316 416.527 184.436 416.967 184.676C417.407 184.908 417.743 185.216 417.975 185.6V182.12H419.079V191H417.975V189.764C417.759 190.156 417.439 190.48 417.015 190.736C416.591 190.984 416.095 191.108 415.527 191.108C414.943 191.108 414.411 190.964 413.931 190.676C413.459 190.388 413.087 189.984 412.815 189.464C412.543 188.944 412.407 188.352 412.407 187.688ZM417.975 187.7C417.975 187.204 417.875 186.772 417.675 186.404C417.475 186.036 417.203 185.756 416.859 185.564C416.523 185.364 416.151 185.264 415.743 185.264C415.335 185.264 414.963 185.36 414.627 185.552C414.291 185.744 414.023 186.024 413.823 186.392C413.623 186.76 413.523 187.192 413.523 187.688C413.523 188.192 413.623 188.632 413.823 189.008C414.023 189.376 414.291 189.66 414.627 189.86C414.963 190.052 415.335 190.148 415.743 190.148C416.151 190.148 416.523 190.052 416.859 189.86C417.203 189.66 417.475 189.376 417.675 189.008C417.875 188.632 417.975 188.196 417.975 187.7ZM423.715 186.812C423.715 185.996 423.899 185.264 424.267 184.616C424.635 183.96 425.135 183.448 425.767 183.08C426.407 182.712 427.115 182.528 427.891 182.528C428.803 182.528 429.599 182.748 430.279 183.188C430.959 183.628 431.455 184.252 431.767 185.06H430.459C430.227 184.556 429.891 184.168 429.451 183.896C429.019 183.624 428.499 183.488 427.891 183.488C427.307 183.488 426.783 183.624 426.319 183.896C425.855 184.168 425.491 184.556 425.227 185.06C424.963 185.556 424.831 186.14 424.831 186.812C424.831 187.476 424.963 188.06 425.227 188.564C425.491 189.06 425.855 189.444 426.319 189.716C426.783 189.988 427.307 190.124 427.891 190.124C428.499 190.124 429.019 189.992 429.451 189.728C429.891 189.456 430.227 189.068 430.459 188.564H431.767C431.455 189.364 430.959 189.984 430.279 190.424C429.599 190.856 428.803 191.072 427.891 191.072C427.115 191.072 426.407 190.892 425.767 190.532C425.135 190.164 424.635 189.656 424.267 189.008C423.899 188.36 423.715 187.628 423.715 186.812ZM434.485 182.12V191H433.393V182.12H434.485ZM442.346 187.46C442.346 187.668 442.334 187.888 442.31 188.12H437.054C437.094 188.768 437.314 189.276 437.714 189.644C438.122 190.004 438.614 190.184 439.19 190.184C439.662 190.184 440.054 190.076 440.366 189.86C440.686 189.636 440.91 189.34 441.038 188.972H442.214C442.038 189.604 441.686 190.12 441.158 190.52C440.63 190.912 439.974 191.108 439.19 191.108C438.566 191.108 438.006 190.968 437.51 190.688C437.022 190.408 436.638 190.012 436.358 189.5C436.078 188.98 435.938 188.38 435.938 187.7C435.938 187.02 436.074 186.424 436.346 185.912C436.618 185.4 436.998 185.008 437.486 184.736C437.982 184.456 438.55 184.316 439.19 184.316C439.814 184.316 440.366 184.452 440.846 184.724C441.326 184.996 441.694 185.372 441.95 185.852C442.214 186.324 442.346 186.86 442.346 187.46ZM441.218 187.232C441.218 186.816 441.126 186.46 440.942 186.164C440.758 185.86 440.506 185.632 440.186 185.48C439.874 185.32 439.526 185.24 439.142 185.24C438.59 185.24 438.118 185.416 437.726 185.768C437.342 186.12 437.122 186.608 437.066 187.232H441.218ZM443.379 187.688C443.379 187.016 443.515 186.428 443.787 185.924C444.059 185.412 444.431 185.016 444.903 184.736C445.383 184.456 445.915 184.316 446.499 184.316C447.075 184.316 447.575 184.44 447.999 184.688C448.423 184.936 448.739 185.248 448.947 185.624V184.424H450.051V191H448.947V189.776C448.731 190.16 448.407 190.48 447.975 190.736C447.551 190.984 447.055 191.108 446.487 191.108C445.903 191.108 445.375 190.964 444.903 190.676C444.431 190.388 444.059 189.984 443.787 189.464C443.515 188.944 443.379 188.352 443.379 187.688ZM448.947 187.7C448.947 187.204 448.847 186.772 448.647 186.404C448.447 186.036 448.175 185.756 447.831 185.564C447.495 185.364 447.123 185.264 446.715 185.264C446.307 185.264 445.935 185.36 445.599 185.552C445.263 185.744 444.995 186.024 444.795 186.392C444.595 186.76 444.495 187.192 444.495 187.688C444.495 188.192 444.595 188.632 444.795 189.008C444.995 189.376 445.263 189.66 445.599 189.86C445.935 190.052 446.307 190.148 446.715 190.148C447.123 190.148 447.495 190.052 447.831 189.86C448.175 189.66 448.447 189.376 448.647 189.008C448.847 188.632 448.947 188.196 448.947 187.7ZM455.101 184.304C455.901 184.304 456.549 184.548 457.045 185.036C457.541 185.516 457.789 186.212 457.789 187.124V191H456.709V187.28C456.709 186.624 456.545 186.124 456.217 185.78C455.889 185.428 455.441 185.252 454.873 185.252C454.297 185.252 453.837 185.432 453.493 185.792C453.157 186.152 452.989 186.676 452.989 187.364V191H451.897V184.424H452.989V185.36C453.205 185.024 453.497 184.764 453.865 184.58C454.241 184.396 454.653 184.304 455.101 184.304ZM462.364 186.812C462.364 185.996 462.548 185.264 462.916 184.616C463.284 183.96 463.784 183.448 464.416 183.08C465.056 182.712 465.764 182.528 466.54 182.528C467.452 182.528 468.248 182.748 468.928 183.188C469.608 183.628 470.104 184.252 470.416 185.06H469.108C468.876 184.556 468.54 184.168 468.1 183.896C467.668 183.624 467.148 183.488 466.54 183.488C465.956 183.488 465.432 183.624 464.968 183.896C464.504 184.168 464.14 184.556 463.876 185.06C463.612 185.556 463.48 186.14 463.48 186.812C463.48 187.476 463.612 188.06 463.876 188.564C464.14 189.06 464.504 189.444 464.968 189.716C465.432 189.988 465.956 190.124 466.54 190.124C467.148 190.124 467.668 189.992 468.1 189.728C468.54 189.456 468.876 189.068 469.108 188.564H470.416C470.104 189.364 469.608 189.984 468.928 190.424C468.248 190.856 467.452 191.072 466.54 191.072C465.764 191.072 465.056 190.892 464.416 190.532C463.784 190.164 463.284 189.656 462.916 189.008C462.548 188.36 462.364 187.628 462.364 186.812ZM474.909 191.108C474.293 191.108 473.733 190.968 473.229 190.688C472.733 190.408 472.341 190.012 472.053 189.5C471.773 188.98 471.633 188.38 471.633 187.7C471.633 187.028 471.777 186.436 472.065 185.924C472.361 185.404 472.761 185.008 473.265 184.736C473.769 184.456 474.333 184.316 474.957 184.316C475.581 184.316 476.145 184.456 476.649 184.736C477.153 185.008 477.549 185.4 477.837 185.912C478.133 186.424 478.281 187.02 478.281 187.7C478.281 188.38 478.129 188.98 477.825 189.5C477.529 190.012 477.125 190.408 476.613 190.688C476.101 190.968 475.533 191.108 474.909 191.108ZM474.909 190.148C475.301 190.148 475.669 190.056 476.013 189.872C476.357 189.688 476.633 189.412 476.841 189.044C477.057 188.676 477.165 188.228 477.165 187.7C477.165 187.172 477.061 186.724 476.853 186.356C476.645 185.988 476.373 185.716 476.037 185.54C475.701 185.356 475.337 185.264 474.945 185.264C474.545 185.264 474.177 185.356 473.841 185.54C473.513 185.716 473.249 185.988 473.049 186.356C472.849 186.724 472.749 187.172 472.749 187.7C472.749 188.236 472.845 188.688 473.037 189.056C473.237 189.424 473.501 189.7 473.829 189.884C474.157 190.06 474.517 190.148 474.909 190.148ZM479.309 187.688C479.309 187.016 479.445 186.428 479.717 185.924C479.989 185.412 480.361 185.016 480.833 184.736C481.313 184.456 481.849 184.316 482.441 184.316C482.953 184.316 483.429 184.436 483.869 184.676C484.309 184.908 484.645 185.216 484.877 185.6V182.12H485.981V191H484.877V189.764C484.661 190.156 484.341 190.48 483.917 190.736C483.493 190.984 482.997 191.108 482.429 191.108C481.845 191.108 481.313 190.964 480.833 190.676C480.361 190.388 479.989 189.984 479.717 189.464C479.445 188.944 479.309 188.352 479.309 187.688ZM484.877 187.7C484.877 187.204 484.777 186.772 484.577 186.404C484.377 186.036 484.105 185.756 483.761 185.564C483.425 185.364 483.053 185.264 482.645 185.264C482.237 185.264 481.865 185.36 481.529 185.552C481.193 185.744 480.925 186.024 480.725 186.392C480.525 186.76 480.425 187.192 480.425 187.688C480.425 188.192 480.525 188.632 480.725 189.008C480.925 189.376 481.193 189.66 481.529 189.86C481.865 190.052 482.237 190.148 482.645 190.148C483.053 190.148 483.425 190.052 483.761 189.86C484.105 189.66 484.377 189.376 484.577 189.008C484.777 188.632 484.877 188.196 484.877 187.7ZM493.826 187.46C493.826 187.668 493.814 187.888 493.79 188.12H488.534C488.574 188.768 488.794 189.276 489.194 189.644C489.602 190.004 490.094 190.184 490.67 190.184C491.142 190.184 491.534 190.076 491.846 189.86C492.166 189.636 492.39 189.34 492.518 188.972H493.694C493.518 189.604 493.166 190.12 492.638 190.52C492.11 190.912 491.454 191.108 490.67 191.108C490.046 191.108 489.486 190.968 488.99 190.688C488.502 190.408 488.118 190.012 487.838 189.5C487.558 188.98 487.418 188.38 487.418 187.7C487.418 187.02 487.554 186.424 487.826 185.912C488.098 185.4 488.478 185.008 488.966 184.736C489.462 184.456 490.03 184.316 490.67 184.316C491.294 184.316 491.846 184.452 492.326 184.724C492.806 184.996 493.174 185.372 493.43 185.852C493.694 186.324 493.826 186.86 493.826 187.46ZM492.698 187.232C492.698 186.816 492.606 186.46 492.422 186.164C492.238 185.86 491.986 185.632 491.666 185.48C491.354 185.32 491.006 185.24 490.622 185.24C490.07 185.24 489.598 185.416 489.206 185.768C488.822 186.12 488.602 186.608 488.546 187.232H492.698Z" fill="#1A120B" fill-opacity="0.8"/>
    </g>
  </g>
  <defs>
    <linearGradient id="paint0_linear_217_2" x1="425" y1="-546.5" x2="425" y2="308.5" gradientUnits="userSpaceOnUse">
      <stop stop-color="#F0E9D2"/>
      <stop offset="0.499497" stop-color="#F0E9D2" stop-opacity="0.23"/>
      <stop offset="0.951249" stop-color="#F0E9D2" stop-opacity="0"/>
    </linearGradient>
    <linearGradient id="paint1_linear_217_2" x1="403" y1="-344.5" x2="403.267" y2="409" gradientUnits="userSpaceOnUse">
      <stop stop-color="#1A120B" stop-opacity="0.5"/>
      <stop offset="0.653793" stop-color="#1A120B" stop-opacity="0"/>
    </linearGradient>
      <clipPath id="clip0_217_2">
      <rect width="850" height="300" rx="20" fill="white"/>
    </clipPath>
  </defs>
</svg>
